<svg width="861" height="549" viewBox="0 0 861 549" fill="none" xmlns="http://www.w3.org/2000/svg">
<path d="M817.224 460.747C798.903 495.903 761.989 520.628 722.52 524.183C674.857 528.528 629.16 504.177 581.386 501.128C519.412 497.204 461.392 529.045 400.58 541.481C328.15 556.328 253.198 543.433 180.406 530.505C132.053 521.925 81.0026 512.111 44.275 479.506C-5.86312 434.988 -13.7402 350.632 27.2157 297.622C96.711 207.671 249.943 233.376 329.158 151.841C370.196 109.601 385.901 43.038 437.272 14.186C498.126 -19.9448 573.275 16.8894 631.272 55.6626C675.413 85.1578 718.505 116.185 761.613 147.172C796.496 172.302 832.819 199.065 851.327 237.901C874.171 285.84 849.697 307.771 834.254 348.433C820.67 384.264 836.746 423.214 817.2 460.69L817.224 460.747Z" fill="white"/>
</svg>
