<svg width="472" height="623" viewBox="0 0 472 623" fill="none" xmlns="http://www.w3.org/2000/svg">
<path d="M12.4546 517.292C12.4546 517.292 12.4546 517.303 12.458 517.326C15.361 536.244 21.552 554.721 32.1623 571.86C32.2714 572.037 32.36 572.46 32.4349 573.097C33.1402 579.118 32.4485 604.359 32.5814 622.768H75.6325C77.101 614.468 78.6514 606.117 80.2869 597.732C81.9701 589.115 83.7453 580.467 85.6159 571.805C85.977 570.139 86.3382 568.477 86.7028 566.81C86.972 565.601 87.2411 564.388 87.5137 563.178C87.5921 562.82 87.6705 562.463 87.7522 562.105C87.8579 561.638 87.9601 561.175 88.0691 560.708C88.1509 560.33 88.2361 559.955 88.3213 559.577C88.495 558.817 88.6688 558.054 88.8426 557.294C89.2719 555.416 89.7046 553.536 90.1476 551.658C90.1953 551.437 90.2498 551.215 90.3043 550.994C90.4951 550.166 90.6893 549.334 90.8869 548.503C91.0675 547.74 91.2481 546.977 91.4321 546.217C91.5036 545.91 91.5752 545.607 91.6502 545.304C91.7319 544.959 91.8137 544.615 91.8989 544.275C91.933 544.118 91.9705 543.961 92.0113 543.808C92.2499 542.813 92.4884 541.818 92.7337 540.823C92.7678 540.673 92.8052 540.52 92.8461 540.37C93.2345 538.765 93.6332 537.16 94.0318 535.555C94.2329 534.741 94.4373 533.927 94.6418 533.116C94.8326 532.349 95.0268 531.586 95.221 530.823C95.3301 530.397 95.4357 529.971 95.5447 529.548C95.8139 528.495 96.0831 527.446 96.3556 526.393C96.451 526.018 96.5464 525.644 96.6452 525.269C96.6895 525.092 96.7373 524.911 96.785 524.734C96.9519 524.093 97.1189 523.449 97.2892 522.809C97.5141 521.933 97.7458 521.057 97.9775 520.182C98.1888 519.384 98.4 518.59 98.6147 517.793C98.7203 517.391 98.8259 516.989 98.9383 516.587C99.061 516.12 99.1871 515.653 99.3131 515.19C99.4017 514.859 99.4903 514.529 99.5823 514.202C99.6028 514.113 99.6266 514.025 99.6539 513.94C99.6675 513.871 99.6879 513.803 99.705 513.738C99.8719 513.122 100.039 512.505 100.213 511.888C100.495 510.839 100.785 509.793 101.075 508.747C101.082 508.713 101.092 508.675 101.105 508.641C101.323 507.844 101.545 507.05 101.766 506.256C101.831 506.021 101.899 505.786 101.964 505.554C102.138 504.931 102.315 504.307 102.492 503.687C102.526 503.554 102.564 503.421 102.605 503.288C103.02 501.816 103.439 500.348 103.865 498.879C103.964 498.525 104.066 498.171 104.172 497.82C104.295 497.38 104.421 496.944 104.55 496.504C104.714 495.939 104.881 495.373 105.048 494.808C105.106 494.596 105.17 494.385 105.235 494.174C105.375 493.687 105.518 493.196 105.664 492.709C105.886 491.956 106.111 491.203 106.336 490.45C106.346 490.412 106.356 490.375 106.37 490.337C106.618 489.492 106.874 488.647 107.129 487.806C107.129 487.802 107.129 487.802 107.133 487.799C107.317 487.172 107.508 486.545 107.699 485.918C107.872 485.339 108.049 484.763 108.23 484.187C108.244 484.126 108.264 484.061 108.288 484C108.424 483.543 108.564 483.087 108.704 482.633C108.809 482.289 108.915 481.945 109.024 481.601C109.358 480.514 109.695 479.427 110.036 478.344C110.169 477.928 110.298 477.509 110.431 477.093C110.537 476.756 110.642 476.415 110.751 476.078C110.98 475.352 111.211 474.626 111.443 473.904C111.511 473.693 111.579 473.478 111.648 473.267C111.883 472.534 112.118 471.802 112.353 471.072C112.36 471.052 112.366 471.028 112.373 471.008H112.377C112.384 470.977 112.394 470.943 112.404 470.912C112.414 470.888 112.421 470.865 112.428 470.841C112.69 470.033 112.953 469.229 113.215 468.422C113.225 468.388 113.239 468.353 113.249 468.319C113.382 467.914 113.515 467.508 113.651 467.103C113.825 466.568 114.002 466.033 114.179 465.498C114.373 464.909 114.568 464.319 114.769 463.733C115.068 462.817 115.375 461.903 115.689 460.99C115.736 460.84 115.787 460.69 115.838 460.541C116.07 459.852 116.302 459.164 116.537 458.479C116.81 457.682 117.082 456.885 117.358 456.087C117.419 455.91 117.481 455.733 117.542 455.556C117.6 455.389 117.658 455.218 117.716 455.051C117.927 454.445 118.138 453.838 118.35 453.232C118.632 452.414 118.919 451.6 119.208 450.786C119.208 450.768 119.219 450.755 119.225 450.738C119.661 449.498 120.104 448.261 120.547 447.024C120.871 446.124 121.195 445.225 121.522 444.325C121.587 444.145 121.651 443.961 121.719 443.78C122.05 442.87 122.384 441.961 122.718 441.054C122.82 440.778 122.919 440.506 123.024 440.23C123.188 439.783 123.355 439.334 123.522 438.887C124.006 437.579 124.496 436.274 124.99 434.969C126.203 431.766 127.44 428.58 128.694 425.415C129.236 424.042 129.785 422.669 130.336 421.302C130.633 420.566 130.933 419.83 131.233 419.098C131.628 418.123 132.03 417.149 132.432 416.178C132.94 414.948 133.454 413.718 133.969 412.494C139.502 399.356 143.417 390.333 147.032 382.796C148.998 378.687 150.879 375.031 152.883 371.382C154.525 368.384 156.256 365.392 158.194 362.179C160.29 358.697 160.617 353.95 159.51 348.693C156.961 336.577 146.804 321.738 133.171 313.329C131.747 312.453 130.561 311.472 129.59 310.405C127.365 307.989 126.203 305.151 125.747 302.153C123.781 289.447 134.347 273.93 129.42 276.08C113.453 283.048 93.0438 293.594 77.2782 308.191C68.9917 315.86 61.9897 324.651 57.5909 334.634C57.5875 334.645 57.5875 334.648 57.5875 334.648C44.1969 357.313 25.8146 395.386 16.4445 437.824C15.9607 440.018 15.5007 442.223 15.068 444.441C14.8124 445.746 14.5637 447.054 14.3286 448.366C14.3082 448.462 14.2911 448.557 14.2775 448.653C13.9299 450.564 13.6063 452.479 13.3064 454.404C13.1906 455.137 13.0781 455.873 12.9691 456.605C12.8022 457.723 12.6454 458.84 12.4955 459.961C12.2467 461.801 12.0185 463.648 11.814 465.498C11.7527 466.026 11.6948 466.554 11.6437 467.083C11.3132 470.217 11.0474 473.362 10.8497 476.514C9.9911 490.112 10.3864 503.813 12.4546 517.292Z" fill="#EC6261"/>
<path d="M25.7506 622.769H409.929C411.82 607.371 413.677 589.827 414.59 576.167C419.589 501.35 413.261 414.515 371.975 351.91C371.805 351.647 371.631 351.385 371.457 351.126C371.079 350.554 370.697 349.988 370.309 349.422C370.309 349.422 370.309 349.419 370.306 349.419C366.033 343.146 361.396 337.129 356.363 331.401C355.586 330.502 354.792 329.612 353.988 328.733C353.988 328.733 353.756 328.089 353.273 326.917C352.417 324.876 350.778 321.244 348.182 316.637C338.165 298.858 313.929 266.523 265.883 254.976C263.576 254.42 261.221 253.916 258.806 253.463C256.996 253.122 255.153 252.809 253.279 252.529C250.798 252.155 248.26 251.838 245.667 251.575C238.198 250.826 230.259 250.557 221.826 250.853H221.802C221.765 250.853 221.727 250.856 221.687 250.856C218.146 250.986 214.644 251.265 211.165 251.705C211.029 251.722 210.896 251.742 210.763 251.759C210.739 251.759 210.722 251.763 210.705 251.766C210.698 251.763 210.695 251.763 210.691 251.766C204.807 252.533 199.015 253.742 193.314 255.409C191.992 255.794 190.677 256.202 189.368 256.639C168.986 263.392 149.871 276.026 132.317 294.759C132.313 294.759 132.313 294.763 132.313 294.763C130.102 297.131 127.911 299.591 125.748 302.153C122.16 306.395 118.643 310.903 115.202 315.68C104.309 330.795 94.1451 348.615 84.8057 369.195C78.4511 383.192 72.4168 398.913 66.7573 416.188C66.4302 417.183 66.1065 418.185 65.7828 419.193C65.5136 420.028 65.2444 420.87 64.9753 421.711C64.4676 423.313 63.9633 424.928 63.4624 426.556C63.2205 427.34 62.9786 428.127 62.7401 428.918C62.4777 429.776 62.2154 430.642 61.9564 431.507C61.7179 432.301 61.4794 433.098 61.2443 433.899C60.7434 435.589 60.2493 437.289 59.7553 439.003C59.6769 439.283 59.5952 439.559 59.5168 439.838C58.4878 443.433 57.4724 447.082 56.4741 450.786C56.239 451.655 56.0073 452.527 55.7722 453.403C55.6631 453.822 55.5507 454.244 55.4383 454.667C55.3531 454.99 55.2679 455.314 55.1827 455.641C54.9067 456.691 54.6307 457.747 54.3582 458.806C54.3513 458.837 54.3411 458.864 54.3343 458.892C53.8505 460.766 53.37 462.653 52.8964 464.551C52.8146 464.865 52.7363 465.182 52.6579 465.498C52.4603 466.296 52.2593 467.096 52.0616 467.901C52.0412 467.993 52.0173 468.085 51.9969 468.177C51.8606 468.725 51.7243 469.277 51.5914 469.829C51.479 470.279 51.37 470.732 51.261 471.185C51.077 471.942 50.893 472.705 50.7124 473.465C50.5114 474.303 50.3103 475.141 50.1127 475.983C50.0548 476.228 49.9968 476.473 49.9389 476.722C49.7209 477.645 49.5028 478.572 49.2881 479.502C49.1927 479.915 49.0939 480.33 48.9985 480.749C48.7906 481.652 48.5828 482.562 48.3749 483.475C48.208 484.208 48.041 484.944 47.8741 485.68C47.7173 486.382 47.5606 487.09 47.4039 487.799C47.2608 488.429 47.1211 489.06 46.9814 489.694C46.9337 489.918 46.8826 490.143 46.8349 490.368C46.8076 490.487 46.7804 490.61 46.7531 490.729C46.5725 491.557 46.3919 492.382 46.2147 493.213C46.1227 493.622 46.0375 494.031 45.9489 494.44C45.6559 495.793 45.3663 497.152 45.0801 498.518C44.7667 499.997 44.4566 501.486 44.1499 502.979C44.0409 503.5 43.9352 504.021 43.8262 504.546C43.7581 504.88 43.6899 505.217 43.6218 505.554C43.3117 507.074 43.0051 508.601 42.7018 510.134C42.5962 510.655 42.494 511.176 42.3884 511.701C42.2964 512.165 42.2043 512.631 42.1158 513.095C42.0817 513.258 42.0511 513.418 42.0204 513.582C41.925 514.066 41.8296 514.55 41.7375 515.037C41.5638 515.916 41.3968 516.798 41.2265 517.684C41.114 518.27 41.0016 518.86 40.8891 519.453C40.6949 520.472 40.5042 521.494 40.3099 522.519C40.1736 523.255 40.0373 523.995 39.8976 524.734C39.7443 525.579 39.5876 526.428 39.4342 527.276C39.315 527.917 39.1992 528.56 39.0833 529.201C38.9504 529.944 38.8141 530.69 38.6812 531.433C38.545 532.193 38.4121 532.956 38.2758 533.716C36.0917 546.081 34.0507 558.804 32.1631 571.86C32.1222 572.129 32.0847 572.399 32.0439 572.671C29.7065 588.88 27.6042 605.599 25.7506 622.769Z" fill="#72728C"/>
<path d="M122.334 39.1716C122.334 39.1716 93.065 31.6075 77.5687 58.7738C62.0757 85.9367 62.0758 71.1422 37.1106 102.878C12.1454 134.613 59.6123 144.303 52.6649 169.521C45.7174 194.738 23.3383 198.575 33.6658 229.584C43.9967 260.594 69.8205 246.675 70.6826 266.996C71.5446 287.318 58.631 307.359 83.5962 309.267C108.561 311.175 115.635 309.111 132.757 336.866C149.878 364.622 190.657 334.079 224.93 342.669C259.204 351.259 344.233 337.173 347.675 318.402C351.119 299.632 416.71 282.35 378.596 235.036C357.58 208.947 385.996 212.446 385.959 175.34C385.932 144.947 344.312 155.35 358.646 126.572C365.045 113.73 365.961 80.4816 334.114 63.3021C302.262 46.1225 302.91 3.79719 258.145 16.6018C213.383 29.4064 207.018 13.4023 179.143 8.63213C151.268 3.85852 139.922 39.8872 122.33 39.1716H122.334Z" fill="#17273D"/>
<path d="M414.395 304.811L353.346 370.663C353.346 370.663 165.233 389.485 115.296 380.422C65.3589 371.362 57.5868 334.645 57.5868 334.645C57.5868 334.645 63.7608 269.313 190.062 255.664C198.645 254.737 243.076 253.889 258.187 253.476C358.89 250.734 414.395 304.811 414.395 304.811Z" fill="#72728C"/>
<path d="M258.188 253.476C247.708 252.355 238.607 245.776 234.436 236.096L221.373 205.764L217.584 196.96L195.297 145.193L199.161 198.84L201.484 231.039L202.145 240.218C202.687 247.708 197.45 254.335 190.06 255.664L189.93 255.688C185.964 262.138 180.485 275.249 196.854 280.455C216.085 286.578 247.19 271.436 258.355 253.497C258.298 253.49 258.243 253.483 258.188 253.48V253.476Z" fill="#EC6261"/>
<path d="M221.431 204.878C221.42 205.175 221.403 205.471 221.376 205.768C220.098 223.063 201.6 231.138 201.6 231.138L201.488 231.043L199.164 198.844C204.82 196.772 212.875 194.643 217.587 196.963C220.051 198.176 221.601 200.602 221.434 204.878H221.431Z" fill="#123233"/>
<path d="M192.865 215.959C165.027 215.959 142.461 188.119 142.461 153.776C142.461 119.433 165.027 91.593 192.865 91.593C220.702 91.593 243.269 119.433 243.269 153.776C243.269 188.119 220.702 215.959 192.865 215.959Z" fill="#EC6261"/>
<path d="M165.718 194.013C165.718 194.013 182.935 194.411 200.152 188.363C200.152 188.363 201.583 205.332 182.935 206.47C172.09 207.131 165.718 194.013 165.718 194.013Z" fill="white"/>
<path d="M187.988 154.376C187.651 154.284 187.361 154.042 187.221 153.694C186.986 153.108 187.269 152.44 187.859 152.205C188.203 152.066 195.92 148.099 202.701 155.514C203.127 155.98 203.12 156.699 202.66 157.136C202.2 157.572 201.566 157.449 201.038 157.095C195.774 153.554 189 154.222 188.714 154.335C188.475 154.43 188.22 154.437 187.988 154.376Z" fill="#123233"/>
<path d="M197.057 166.972C197.142 169.708 195.606 171.974 193.623 172.039C191.64 172.1 189.96 169.937 189.871 167.2C189.783 164.464 191.323 162.199 193.306 162.134C195.289 162.073 196.969 164.236 197.057 166.972Z" fill="#123233"/>
<path d="M147.066 160.352C146.722 160.396 146.361 160.283 146.098 160.014C145.659 159.561 145.666 158.839 146.119 158.396C146.385 158.137 152.01 151.527 161.101 155.803C161.673 156.072 161.939 156.74 161.68 157.319C161.421 157.898 160.787 158.024 160.164 157.898C153.949 156.631 147.938 159.827 147.717 160.042C147.533 160.222 147.301 160.324 147.063 160.355L147.066 160.352Z" fill="#123233"/>
<path d="M160.252 168.546C161.373 171.04 160.814 173.725 159.005 174.54C157.196 175.354 154.817 173.991 153.696 171.497C152.575 169.003 153.134 166.318 154.943 165.504C156.753 164.689 159.131 166.052 160.255 168.546H160.252Z" fill="#123233"/>
<path d="M242.321 163.152C236.61 168.604 228.627 169.163 224.49 164.399C220.351 159.636 221.625 151.356 227.336 145.905C233.046 140.453 241.029 139.894 245.166 144.658C249.306 149.421 248.031 157.701 242.321 163.152Z" fill="#EC6261"/>
<path d="M168.399 110.139C168.399 110.139 170.979 127.768 189.896 126.047C189.896 126.047 189.467 140.665 207.955 136.797C207.955 136.797 206.602 146.685 219.747 147.547C219.747 147.547 225.151 157.078 239.772 151.023C254.389 144.968 261.732 115.301 245.806 100.254C229.88 85.2043 189.266 73.5956 165.718 85.637C142.17 97.6749 129.846 148.27 136.153 151.026C142.46 153.779 156.297 150.563 156.975 139.384C156.975 139.384 169.49 134.225 165.721 122.616C165.721 122.616 168.832 115.308 168.403 110.149L168.399 110.139Z" fill="#17273D"/>
<path d="M241.982 203.935C243.233 203.935 244.323 203.819 245.185 203.683C254.099 202.248 261.653 195.41 262.021 188.432C262.695 175.692 250.139 165.555 249.604 165.132C249.042 164.693 248.235 164.782 247.792 165.34C247.349 165.899 247.441 166.707 248 167.153C248.122 167.248 260.048 176.891 259.448 188.299C259.145 194.026 252.429 199.907 244.78 201.134C236.129 202.521 228.99 197.699 225.178 187.897C222.401 180.755 222.316 174.571 224.936 169.521C229.205 161.289 239.338 158.696 239.441 158.669C240.132 158.498 240.551 157.8 240.384 157.108C240.214 156.42 239.502 156.001 238.827 156.165C238.364 156.277 227.478 159.04 222.66 168.311C219.671 174.053 219.712 180.959 222.779 188.834C227.757 201.638 236.422 203.935 241.989 203.935H241.982Z" fill="white"/>
<path d="M161.255 220.051C167.953 220.051 172.955 217.117 173.044 217.066C173.654 216.698 173.848 215.908 173.483 215.298C173.115 214.684 172.328 214.49 171.715 214.855C171.17 215.182 158.208 222.695 146.692 211.028C135.141 199.328 143.451 186.329 143.533 186.196C143.925 185.6 143.758 184.799 143.165 184.411C142.583 184.019 141.768 184.179 141.38 184.779C141.281 184.925 131.856 199.665 144.855 212.834C150.378 218.432 156.283 220.048 161.255 220.048V220.051Z" fill="white"/>
<path d="M232.306 14.2882C237.254 14.2882 242.647 13.5658 248.395 11.76C249.033 11.559 249.387 10.8843 249.186 10.2471C248.988 9.61339 248.307 9.25563 247.673 9.45666C220.473 17.9953 201.814 1.23488 201.63 1.06792C201.136 0.618157 200.376 0.648823 199.923 1.13947C199.474 1.63012 199.504 2.39335 199.995 2.84652C200.152 2.98963 212.735 14.2916 232.303 14.2916L232.306 14.2882Z" fill="#183E41"/>
<path d="M44.016 86.4102C44.2034 86.4102 44.3942 86.3659 44.5714 86.2773C45.3891 85.8548 64.7391 75.6637 77.6459 54.2897C91.6396 31.1236 109.828 32.3298 116.993 33.921C128.391 36.4696 136.326 27.8867 136.66 27.5187C137.106 27.0246 137.069 26.2648 136.575 25.8116C136.084 25.3653 135.321 25.3994 134.868 25.8934C134.796 25.9718 127.518 33.7779 117.518 31.5631C109.838 29.8561 90.379 28.5307 75.5777 53.0427C63.0253 73.8373 43.6582 84.0319 43.464 84.1308C42.8711 84.4374 42.6395 85.17 42.9461 85.7594C43.1608 86.1751 43.5833 86.4136 44.0194 86.4136L44.016 86.4102Z" fill="#183E41"/>
<path d="M376.636 149.435C377.059 149.435 377.471 149.21 377.693 148.815C378.016 148.229 377.805 147.496 377.226 147.172C365.092 140.436 366.997 135.131 375.474 117.774C384.207 99.8929 366.343 82.1171 365.576 81.3743C365.099 80.9075 364.336 80.9143 363.869 81.3913C363.402 81.8683 363.409 82.6316 363.886 83.0984C364.06 83.2721 381.267 100.407 373.301 116.715C364.816 134.085 361.937 141.448 376.047 149.285C376.234 149.391 376.435 149.438 376.633 149.438L376.636 149.435Z" fill="#183E41"/>
<path d="M392.45 236.757C392.831 236.757 393.203 236.576 393.441 236.242C393.823 235.694 393.69 234.941 393.145 234.559C378.156 224.102 387.07 210.814 387.458 210.255C387.836 209.706 387.7 208.953 387.152 208.575C386.613 208.194 385.85 208.326 385.472 208.882C385.363 209.039 374.827 224.722 391.762 236.539C391.973 236.685 392.215 236.757 392.453 236.757H392.45Z" fill="#183E41"/>
<path d="M306.782 102.152C307.178 102.152 307.563 101.958 307.794 101.604C308.08 101.164 314.749 90.7241 311.893 78.9962C310.091 71.6058 304.919 65.4386 296.516 60.665C282.88 52.9168 274.89 55.0532 266.426 57.2986C258.072 59.5269 249.431 61.8235 233.836 54.8487C201.466 40.3848 187.834 60.8524 187.698 61.0602C187.34 61.6224 187.5 62.3652 188.062 62.7264C188.607 63.0739 189.364 62.9274 189.728 62.3686C190.236 61.5884 202.451 43.465 232.851 57.0567C249.226 64.3755 258.699 61.8575 267.046 59.6326C275.367 57.4178 282.556 55.5132 295.324 62.7639C303.126 67.1933 307.91 72.8494 309.546 79.5652C312.159 90.2913 305.832 100.186 305.77 100.285C305.406 100.847 305.566 101.593 306.121 101.954C306.326 102.087 306.554 102.152 306.779 102.152H306.782Z" fill="white"/>
<path d="M86.6726 204.204C86.7816 204.204 86.8975 204.19 87.0099 204.156C87.6505 203.972 88.0185 203.301 87.8345 202.66C85.0065 192.915 90.114 190.343 98.5845 186.077C102.196 184.257 106.292 182.196 110.329 179.201C113.348 176.969 114.708 175.02 114.612 173.078C114.476 170.305 111.457 168.505 107.961 166.424C103.235 163.606 97.8792 160.413 97.5385 154.297C97.1057 146.535 101.181 145.51 107.355 143.963C111.437 142.937 116.067 141.775 120.067 138.276C125.366 133.635 124.913 128.238 124.545 123.904C124.163 119.372 124.153 117.328 128.003 116.408C138.736 113.832 140.586 101.637 140.661 101.116C140.753 100.459 140.296 99.8452 139.635 99.7533C138.995 99.6578 138.365 100.118 138.269 100.775C138.256 100.884 136.562 111.87 127.441 114.057C121.413 115.502 121.781 119.877 122.139 124.105C122.493 128.293 122.858 132.62 118.473 136.457C114.916 139.574 110.585 140.658 106.762 141.619C100.496 143.193 94.5809 144.678 95.1261 154.433C95.5418 161.827 101.74 165.524 106.721 168.499C109.501 170.155 112.122 171.719 112.197 173.197C112.248 174.216 111.106 175.62 108.888 177.262C105.014 180.131 101.021 182.145 97.4942 183.92C88.9078 188.247 82.1273 191.665 85.5108 203.335C85.6675 203.863 86.1445 204.207 86.6692 204.207L86.6726 204.204Z" fill="white"/>
<path d="M318.387 223.768C318.442 223.768 318.496 223.768 318.551 223.755C319.212 223.666 319.675 223.059 319.587 222.398C318.353 213.202 325.662 205.842 332.112 199.348C337.277 194.149 341.741 189.658 340.971 184.976C340.49 182.053 337.976 179.49 333.28 177.15C326.2 173.616 321.812 169.054 320.244 163.589C318.04 155.905 322.231 148.927 322.272 148.859C322.619 148.29 322.442 147.547 321.876 147.2C321.311 146.855 320.568 147.029 320.217 147.595C320.019 147.915 315.43 155.51 317.917 164.226C319.672 170.379 324.479 175.456 332.204 179.306C336.156 181.279 338.245 183.259 338.592 185.368C339.161 188.83 335.1 192.915 330.401 197.648C323.897 204.197 315.801 212.344 317.198 222.719C317.28 223.325 317.798 223.765 318.391 223.765L318.387 223.768Z" fill="white"/>
<path d="M322.219 363.187C318.021 356.557 335.253 338.117 360.707 322.001C386.162 305.884 410.2 298.194 414.397 304.824C418.595 311.454 401.363 329.893 375.909 346.01C350.454 362.126 326.417 369.817 322.219 363.187Z" fill="#123233"/>
<path d="M213.897 503.83C259.585 528.039 348.877 511.568 365.099 486.93C383.968 458.271 367.862 414.661 347.875 384.572C337.646 369.174 336.546 354.216 352.703 335.387C359.412 327.568 365.988 322.13 387.427 313.179C397.781 308.855 408.092 307.472 413.888 314.916C422.958 326.569 429.435 336.134 442.018 359.388C471.9 414.631 478.313 468.408 464.782 509.851C445.797 568.017 369.211 644.694 187.981 580.917C179.381 577.891 206.428 499.871 213.897 503.83Z" fill="#EC6261"/>
<path d="M188.083 551.658V541.416L38.1897 540.486L38.4043 551.658H188.083Z" fill="#40C1A3"/>
<path d="M182.209 541.126C168.57 529.776 137.455 519.796 83.9227 526.614C49.0594 531.054 30.8474 544.54 40.9091 556.278C53.1413 570.548 88.7338 575.618 141.169 570.896C177.248 567.645 199.263 555.317 182.209 541.126Z" fill="#40C1A3"/>
<path d="M182.209 531.258C168.57 519.909 137.455 509.929 83.9227 516.747C49.0594 521.186 30.8474 534.673 40.9091 546.411C53.1413 560.68 88.7338 565.75 141.169 561.028C177.248 557.777 199.263 545.45 182.209 531.258Z" fill="#A9E1D4"/>
<path d="M48.4597 536.87C48.4972 536.758 48.5381 536.645 48.5824 536.533C48.688 536.26 48.8073 535.988 48.9401 535.715C49.2229 535.132 49.5671 534.557 49.9726 533.991C50.4189 533.367 50.9368 532.751 51.5263 532.151C52.4905 531.163 53.6354 530.209 54.9574 529.299C55.1414 529.166 55.3322 529.037 55.5265 528.911C56.0069 528.594 56.5077 528.28 57.029 527.974C58.0785 527.354 59.2097 526.757 60.4193 526.185C61.3359 525.745 62.2933 525.323 63.2985 524.917C63.4484 524.856 63.5983 524.795 63.7516 524.733C64.4603 524.451 65.1895 524.175 65.9425 523.905C66.3991 523.742 66.8659 523.582 67.3395 523.425C68.808 522.927 70.3481 522.461 71.9564 522.028C76.7334 520.723 82.0965 519.673 87.9127 518.934C91.6266 518.46 95.1907 518.082 98.615 517.793C101.879 517.513 105.014 517.316 108.023 517.186C110.568 517.077 113.021 517.019 115.386 517.009C115.709 517.006 116.03 517.006 116.347 517.006C133.731 517.006 146.399 519.493 155.425 522.583C155.803 522.709 156.174 522.839 156.539 522.972C158.137 523.544 159.612 524.137 160.975 524.733C161.118 524.798 161.261 524.859 161.401 524.924C162.433 525.384 163.398 525.848 164.297 526.311C166.089 527.227 167.626 528.134 168.931 528.992C169.466 529.34 169.96 529.681 170.417 530.015C171.17 530.553 171.827 531.064 172.39 531.534C172.959 532.008 173.538 532.533 174.097 533.098C174.635 533.647 175.149 534.236 175.62 534.863C175.902 535.241 176.168 535.633 176.41 536.035C176.693 536.509 176.945 536.996 177.15 537.5C177.524 538.41 177.759 539.371 177.794 540.369C177.807 540.628 177.8 540.887 177.783 541.15C177.78 541.214 177.773 541.279 177.766 541.347C177.719 541.858 177.613 542.38 177.449 542.911C176.431 546.182 173.122 549.157 167.963 551.658C165.943 552.636 163.636 553.545 161.074 554.37C154.529 556.479 146.307 558.046 136.848 558.898C136.279 558.949 135.71 559 135.145 559.048C124.929 559.927 115.488 560.367 106.854 560.367C103.998 560.367 101.235 560.319 98.5639 560.22C98.264 560.213 97.9642 560.2 97.6678 560.186C97.6269 560.186 97.586 560.186 97.5451 560.186C96.574 560.149 95.6132 560.101 94.666 560.046C92.4853 559.927 90.3694 559.77 88.3216 559.58C85.8206 559.351 83.4219 559.069 81.1254 558.735C71.2068 557.297 63.336 554.929 57.6049 551.661C54.7257 550.022 52.3883 548.158 50.5995 546.07C49.2059 544.444 48.3643 542.731 48.0849 540.986C48.0611 540.843 48.0406 540.696 48.027 540.55C48.0202 540.492 48.0134 540.431 48.01 540.373C47.9077 539.211 48.0576 538.039 48.4597 536.873V536.87ZM50.3712 540.56C50.4734 541.242 50.6949 541.916 51.0322 542.588C51.3627 543.249 51.8091 543.906 52.3645 544.557C54.7598 547.351 58.2795 549.722 62.8487 551.658C69.418 554.445 78.1542 556.333 88.8429 557.293C92.6897 557.641 96.7887 557.869 101.133 557.971C101.532 557.982 101.937 557.992 102.343 557.995C112.517 558.189 123.992 557.723 136.64 556.585C136.865 556.564 137.087 556.544 137.308 556.523C146.297 555.675 154.161 554.165 160.379 552.186C160.917 552.012 161.445 551.838 161.956 551.658C169.265 549.119 174.005 545.893 175.194 542.342L175.235 542.22C175.327 541.927 175.391 541.633 175.432 541.334C175.473 541.013 175.487 540.693 175.473 540.369C175.419 539.259 175.017 538.117 174.267 536.955C174.182 536.812 174.083 536.672 173.984 536.529C173.63 536.032 173.214 535.531 172.737 535.027C172.666 534.952 172.591 534.873 172.516 534.795C172.035 534.308 171.5 533.814 170.904 533.32C169.664 532.287 168.103 531.149 166.171 529.987C166.103 529.946 166.035 529.906 165.967 529.865C164.587 529.044 163.02 528.209 161.248 527.388C160.222 526.914 159.128 526.444 157.96 525.98C157.496 525.8 157.023 525.616 156.535 525.435C155.888 525.2 155.224 524.962 154.535 524.733C153.227 524.29 151.837 523.864 150.368 523.456C147.932 522.778 145.268 522.154 142.361 521.602C134.739 520.161 126.367 519.408 117.304 519.353C112.452 519.319 107.406 519.486 102.169 519.854C100.785 519.946 99.3885 520.059 97.9778 520.181C94.7852 520.461 91.5278 520.815 88.2057 521.237C82.4338 521.973 77.098 523.026 72.3687 524.324C71.8814 524.457 71.4044 524.594 70.9342 524.733C70.004 525.002 69.1011 525.285 68.222 525.578C67.6666 525.762 67.1214 525.95 66.5865 526.141C65.6086 526.491 64.6682 526.853 63.7653 527.227C63.6119 527.292 63.4586 527.357 63.3087 527.418C62.065 527.946 60.8997 528.495 59.8162 529.064C59.6493 529.149 59.4823 529.238 59.3221 529.323C58.9678 529.517 58.6237 529.708 58.2898 529.906C56.1023 531.18 54.3168 532.539 52.9914 533.957C52.6814 534.284 52.3986 534.614 52.1464 534.948C51.9249 535.231 51.7239 535.517 51.5433 535.807C51.3355 536.134 51.1515 536.465 50.9948 536.799C50.9028 536.989 50.821 537.177 50.7494 537.368C50.361 538.369 50.2281 539.374 50.3474 540.369C50.3508 540.434 50.361 540.495 50.3712 540.56Z" fill="white"/>
<path d="M188.083 540.369V530.124L38.1897 529.197L38.4043 540.369H188.083Z" fill="#40C1A3"/>
<path d="M182.209 529.838C168.57 518.488 137.455 508.508 83.9227 515.326C49.0594 519.766 30.8474 533.252 40.9091 544.99C53.1413 559.259 88.7338 564.329 141.169 559.607C177.248 556.356 199.263 544.029 182.209 529.841V529.838Z" fill="#40C1A3"/>
<path d="M182.209 519.97C168.57 508.62 137.455 498.64 83.9227 505.458C49.0594 509.898 30.8474 523.384 40.9091 535.122C53.1413 549.392 88.7338 554.462 141.169 549.74C177.248 546.489 199.263 534.161 182.209 519.974V519.97Z" fill="#A9E1D4"/>
<path d="M48.0616 527.238C48.1365 526.686 48.2694 526.137 48.4568 525.585C48.4602 525.582 48.4602 525.575 48.4636 525.568C48.5011 525.459 48.542 525.35 48.5829 525.241C48.6476 525.071 48.7192 524.901 48.7976 524.734C48.8896 524.519 48.9951 524.308 49.1076 524.096C49.7618 522.86 50.692 521.66 51.8811 520.509C52.2764 520.124 52.6989 519.745 53.152 519.367C53.3122 519.238 53.4757 519.105 53.6427 518.975C54.3037 518.454 55.0226 517.946 55.7893 517.449C57.8609 516.11 60.3074 514.859 63.0877 513.711C63.6567 513.479 64.2394 513.251 64.8356 513.026C66.7062 512.321 68.7097 511.66 70.8359 511.05C72.4782 510.583 74.192 510.144 75.974 509.735C78.6692 509.121 81.5177 508.58 84.5025 508.126C85.6201 507.953 86.7581 507.793 87.9132 507.646C89.2216 507.479 90.5129 507.326 91.7839 507.179C95.2457 506.791 98.5712 506.484 101.767 506.256C107.539 505.844 112.889 505.68 117.85 505.721C119.979 505.738 122.037 505.792 124.024 505.884C124.313 505.895 124.603 505.908 124.889 505.925C129.356 506.15 133.462 506.549 137.227 507.08C140.77 507.574 144.014 508.188 146.979 508.883C148.774 509.302 150.464 509.748 152.059 510.222C154.192 510.849 156.151 511.517 157.947 512.202C159.766 512.9 161.419 513.616 162.911 514.331C166.012 515.82 168.438 517.309 170.281 518.628C170.84 519.023 171.344 519.405 171.797 519.766C172.005 519.929 172.203 520.089 172.39 520.246C172.772 520.563 173.16 520.907 173.542 521.268C174.605 522.274 175.627 523.439 176.4 524.734C176.629 525.108 176.833 525.493 177.014 525.889C177.061 525.998 177.109 526.107 177.153 526.216C177.389 526.781 177.566 527.364 177.675 527.964C177.801 528.642 177.838 529.344 177.77 530.059C177.722 530.57 177.62 531.095 177.453 531.623C177.106 532.741 176.489 533.824 175.62 534.863C175.303 535.245 174.952 535.623 174.567 535.991C174.383 536.175 174.189 536.352 173.985 536.53C173.583 536.884 173.146 537.232 172.683 537.572C171.351 538.557 169.77 539.491 167.964 540.37C167.323 540.68 166.656 540.983 165.96 541.276C163.705 542.233 161.163 543.112 158.355 543.9C152.307 545.596 145.04 546.871 136.849 547.61C129.039 548.312 121.673 548.762 114.763 548.956C112.054 549.038 109.42 549.075 106.854 549.075C101.174 549.075 95.8453 548.884 90.8877 548.503C90.0223 548.438 89.1705 548.367 88.3289 548.285C86.4344 548.111 84.5979 547.91 82.8193 547.675C82.2469 547.6 81.6846 547.525 81.1258 547.443C71.4457 546.039 63.7215 543.753 58.0279 540.608C57.8848 540.53 57.7417 540.448 57.602 540.37C56.5048 539.743 55.4826 539.082 54.5422 538.39C53.4315 537.576 52.4331 536.714 51.5438 535.807C51.4177 535.678 51.2951 535.548 51.1724 535.419C50.9748 535.208 50.784 534.993 50.6 534.778C50.3751 534.519 50.1673 534.254 49.9731 533.991C48.8486 532.465 48.1979 530.87 48.0275 529.255C47.9525 528.587 47.9662 527.913 48.0616 527.238ZM51.5268 532.151C51.7687 532.526 52.0481 532.897 52.365 533.265C52.566 533.501 52.7738 533.729 52.9919 533.957C53.1248 534.1 53.2611 534.24 53.4008 534.376C55.7347 536.697 58.9035 538.697 62.856 540.37C63.0706 540.462 63.2887 540.554 63.5102 540.642C65.3501 541.392 67.3536 542.07 69.5172 542.683C74.3147 544.043 79.8958 545.065 86.2061 545.746C87.0545 545.838 87.9166 545.924 88.7922 546.002C88.8229 546.005 88.8536 546.009 88.8842 546.009C89.0546 546.026 89.2284 546.039 89.3988 546.056C90.07 546.114 90.748 546.169 91.4329 546.217C99.3616 546.806 108.296 546.908 118.149 546.516C123.996 546.288 130.164 545.879 136.641 545.297C144.764 544.564 151.991 543.293 157.943 541.62C157.974 541.613 158.001 541.606 158.032 541.596C158.454 541.477 158.87 541.358 159.275 541.235C160.206 540.956 161.098 540.666 161.957 540.37C166.54 538.778 170.111 536.918 172.431 534.87C172.458 534.85 172.489 534.826 172.516 534.795C173.136 534.247 173.664 533.678 174.097 533.098C174.622 532.393 175.007 531.667 175.235 530.931C175.327 530.638 175.392 530.342 175.433 530.046C175.463 529.814 175.48 529.579 175.48 529.344C175.48 528.519 175.29 527.681 174.905 526.829C174.799 526.591 174.676 526.352 174.54 526.11C174.281 525.657 173.971 525.197 173.603 524.734C173.344 524.406 173.058 524.073 172.741 523.742C172.407 523.384 172.036 523.023 171.637 522.665C171.402 522.451 171.16 522.239 170.904 522.028C170.564 521.742 170.196 521.449 169.804 521.153C169.129 520.638 168.38 520.103 167.548 519.558C164.901 517.827 161.429 515.987 156.928 514.294C155.827 513.881 154.665 513.476 153.435 513.081C151.418 512.437 149.22 511.823 146.839 511.261C145.415 510.927 143.922 510.61 142.362 510.314C141.622 510.174 140.873 510.041 140.12 509.915C136.392 509.285 132.494 508.818 128.433 508.508C126.436 508.355 124.395 508.242 122.317 508.167C120.293 508.096 118.235 508.058 116.136 508.058C111.314 508.058 106.302 508.253 101.106 508.641C100.697 508.668 100.292 508.702 99.8796 508.736C97.8556 508.893 95.8011 509.084 93.7226 509.305C91.9031 509.496 90.0666 509.711 88.2062 509.946C86.3629 510.181 84.5638 510.45 82.8159 510.747C80.4683 511.145 78.2093 511.598 76.0558 512.103C73.8922 512.607 71.8376 513.159 69.8954 513.755C69.7012 513.813 69.507 513.875 69.3162 513.936C64.8799 515.333 61.0774 516.962 58.0619 518.75C57.2067 519.258 56.4162 519.776 55.6905 520.311C55.5985 520.376 55.5099 520.444 55.4213 520.509C54.7569 521.009 54.1538 521.517 53.6154 522.038C53.0566 522.57 52.5626 523.112 52.1401 523.66C51.8675 524.015 51.6222 524.372 51.4075 524.734C51.3087 524.897 51.2201 525.064 51.1349 525.228C51.0566 525.378 50.9816 525.531 50.9169 525.681C50.8555 525.814 50.801 525.943 50.7499 526.076C50.6682 526.284 50.6 526.495 50.5421 526.703C50.3002 527.562 50.2422 528.417 50.3717 529.269C50.5182 530.24 50.9032 531.201 51.5268 532.151Z" fill="white"/>
<path d="M188.083 524.733V514.488L38.1897 513.561L38.4043 524.733H188.083Z" fill="#40C1A3"/>
<path d="M182.209 514.202C168.57 502.852 137.455 492.872 83.9227 499.69C49.0594 504.13 30.8474 517.616 40.9091 529.354C53.1413 543.624 88.7338 548.694 141.169 543.971C177.248 540.721 199.263 528.393 182.209 514.205V514.202Z" fill="#40C1A3"/>
<path d="M182.209 504.331C168.57 492.981 137.455 483.001 83.9227 489.819C49.0594 494.259 30.8474 507.745 40.9091 519.483C53.1413 533.753 88.7338 538.823 141.169 534.1C177.248 530.85 199.263 518.522 182.209 504.334V504.331Z" fill="#A9E1D4"/>
<path d="M48.4601 509.943C48.4976 509.83 48.5385 509.718 48.5828 509.605C48.6816 509.353 48.7872 509.101 48.9099 508.852C49.0666 508.519 49.2472 508.191 49.4482 507.864C49.9218 507.077 50.5147 506.307 51.2132 505.554C51.7652 504.958 52.3887 504.372 53.0736 503.796C53.5165 503.428 53.9867 503.063 54.4842 502.706C54.658 502.58 54.8385 502.454 55.0191 502.327C58.3549 500.028 62.7775 497.97 68.0793 496.252C69.892 495.666 71.8068 495.118 73.8171 494.613C74.1102 494.538 74.4066 494.467 74.703 494.395C76.8189 493.884 79.0337 493.421 81.3404 493.009C83.4563 492.63 85.6506 492.296 87.9131 492.007C94.5198 491.165 100.663 490.623 106.37 490.337C106.571 490.327 106.772 490.317 106.97 490.307C113.911 489.976 120.201 490.017 125.891 490.344C128.269 490.477 130.542 490.664 132.712 490.893C135.404 491.172 137.942 491.52 140.331 491.922C142.631 492.303 144.794 492.739 146.825 493.213C149.224 493.765 151.442 494.375 153.486 495.019C153.578 495.046 153.67 495.077 153.762 495.107C159.79 497.022 164.318 499.227 167.62 501.237C167.892 501.404 168.158 501.568 168.414 501.731C169.156 502.201 169.828 502.661 170.434 503.098C171.184 503.636 171.831 504.144 172.39 504.607C172.744 504.903 173.105 505.217 173.46 505.554C173.916 505.98 174.366 506.437 174.789 506.921C175.753 508.011 176.601 509.237 177.15 510.573C177.647 511.776 177.9 513.067 177.77 514.423C177.746 514.689 177.705 514.958 177.647 515.231C177.641 515.272 177.63 515.316 177.62 515.36C177.576 515.565 177.518 515.776 177.453 515.984C177.405 516.137 177.354 516.287 177.296 516.437C177.235 516.601 177.167 516.761 177.092 516.924C176.4 518.447 175.201 519.902 173.542 521.269C172.962 521.742 172.329 522.209 171.637 522.666C171.484 522.768 171.323 522.87 171.163 522.969C170.734 523.238 170.288 523.504 169.821 523.766C169.231 524.097 168.608 524.42 167.954 524.734C166.822 525.282 165.603 525.811 164.298 526.311C163.327 526.686 162.311 527.044 161.248 527.388C159.786 527.865 158.239 528.315 156.611 528.734C156.437 528.778 156.26 528.823 156.083 528.867C154.621 529.235 153.098 529.576 151.517 529.896C147.067 530.792 142.154 531.494 136.849 531.971C134.968 532.141 133.114 532.295 131.288 532.434C125.465 532.881 119.904 533.181 114.613 533.327C111.958 533.402 109.372 533.439 106.854 533.439C106.503 533.439 106.156 533.439 105.808 533.439C101.914 533.426 98.1929 533.317 94.6425 533.119C89.9643 532.86 85.5893 532.441 81.5244 531.865C81.3915 531.848 81.2586 531.831 81.1257 531.811C78.8395 531.48 76.6588 531.099 74.5906 530.669C72.7336 530.281 70.9652 529.855 69.2854 529.392C69.173 529.361 69.0606 529.327 68.9515 529.296C66.9991 528.748 65.1729 528.141 63.4692 527.487C63.4147 527.463 63.3602 527.443 63.3091 527.422C62.3039 527.03 61.3397 526.618 60.4197 526.189C59.4316 525.729 58.4946 525.245 57.6053 524.737C56.9306 524.352 56.2866 523.957 55.6733 523.548C55.2338 523.255 54.8079 522.955 54.399 522.652C54.1298 522.451 53.8675 522.25 53.6153 522.042C52.9986 521.548 52.4194 521.037 51.881 520.512C51.4278 520.066 50.9985 519.609 50.5999 519.142C50.2217 518.703 49.8878 518.257 49.5913 517.807C49.1348 517.112 48.7736 516.403 48.5146 515.687C48.2727 515.033 48.1125 514.372 48.0376 513.704C48.0308 513.677 48.0274 513.65 48.0274 513.623C47.8945 512.403 48.0376 511.173 48.4601 509.946V509.943ZM50.5829 514.56C50.6135 514.658 50.6476 514.757 50.6851 514.856C51.019 515.79 51.5812 516.716 52.3649 517.63C52.7601 518.09 53.186 518.539 53.6426 518.975C53.997 519.32 54.3684 519.654 54.7602 519.981C54.9749 520.158 55.1963 520.335 55.4212 520.509C55.9118 520.89 56.4264 521.262 56.9681 521.62C57.4247 521.926 57.9017 522.223 58.3958 522.516C59.7484 523.31 61.2374 524.049 62.8559 524.734C63.0024 524.799 63.1489 524.86 63.2988 524.918C64.0314 525.221 64.7913 525.514 65.5749 525.793C65.9088 525.913 66.2462 526.029 66.5869 526.141C67.8237 526.557 69.1185 526.949 70.4746 527.313C71.6365 527.623 72.8393 527.916 74.0863 528.189C76.2942 528.673 78.6385 529.099 81.1121 529.46C82.6011 529.681 84.1344 529.879 85.7188 530.056C88.7206 530.39 91.8894 530.645 95.2217 530.823C99.4025 531.044 103.839 531.14 108.52 531.109C116.66 531.058 125.543 530.622 135.107 529.797C135.615 529.753 136.126 529.708 136.641 529.661C141.806 529.194 146.61 528.513 150.951 527.644C152.914 527.255 154.778 526.826 156.543 526.366C157.023 526.24 157.497 526.11 157.96 525.981C159.159 525.644 160.308 525.293 161.401 524.925C161.589 524.86 161.776 524.795 161.957 524.734C163.858 524.073 165.582 523.368 167.119 522.618C167.65 522.362 168.158 522.1 168.642 521.831C169.044 521.609 169.432 521.381 169.804 521.153C170.533 520.703 171.201 520.24 171.797 519.766C172.942 518.86 173.835 517.916 174.455 516.941C174.537 516.812 174.615 516.682 174.686 516.553C174.918 516.137 175.102 515.718 175.235 515.292C175.242 515.268 175.249 515.248 175.255 515.224C175.337 514.955 175.395 514.682 175.433 514.41C175.463 514.175 175.48 513.94 175.48 513.704C175.48 512.164 174.809 510.566 173.47 508.927C173.245 508.655 173 508.379 172.737 508.099C172.673 508.031 172.608 507.963 172.54 507.892C172.056 507.398 171.511 506.897 170.904 506.392C170.577 506.12 170.226 505.837 169.852 505.554C169.378 505.19 168.863 504.815 168.311 504.437C167.647 503.98 166.925 503.513 166.141 503.04C165.671 502.76 165.18 502.474 164.666 502.188C160.662 499.976 155.275 497.724 148.099 495.932C146.863 495.622 145.571 495.326 144.225 495.05C143.615 494.92 142.995 494.797 142.362 494.678C141.636 494.542 140.9 494.409 140.16 494.286C139.462 494.167 138.757 494.055 138.044 493.949C135.448 493.557 132.77 493.24 130.017 493.002C126.272 492.671 122.385 492.484 118.357 492.436C117.621 492.423 116.882 492.419 116.136 492.419C112.739 492.419 109.25 492.515 105.665 492.709C102.571 492.872 99.4059 493.111 96.1723 493.421C94.714 493.561 93.2387 493.714 91.7497 493.884C90.5776 494.017 89.3952 494.16 88.2061 494.31C87.2861 494.426 86.3798 494.552 85.4837 494.685C84.1037 494.889 82.751 495.111 81.4324 495.353C78.6282 495.86 75.9637 496.45 73.456 497.104C66.7981 498.849 61.2613 501.074 57.2714 503.595C57.2373 503.615 57.2066 503.636 57.176 503.656C56.4264 504.133 55.7347 504.624 55.0975 505.121C54.9135 505.265 54.7329 505.408 54.5591 505.554C53.6017 506.355 52.7908 507.18 52.1468 508.021C52.0821 508.103 52.0207 508.181 51.9628 508.263C51.8231 508.454 51.6902 508.645 51.5675 508.839C51.2302 509.367 50.9577 509.902 50.7498 510.44C50.3375 511.507 50.2115 512.573 50.3716 513.633C50.4159 513.943 50.4875 514.253 50.5829 514.56Z" fill="white"/>
<path d="M186.312 505.554V495.308L36.4147 494.382L36.6294 505.554H186.312Z" fill="#40C1A3"/>
<path d="M180.438 495.022C166.798 483.672 135.683 473.692 82.1512 480.51C47.2878 484.95 29.0759 498.436 39.1376 510.174C51.3698 524.444 86.9623 529.514 139.397 524.792C175.477 521.541 197.491 509.213 180.438 495.022Z" fill="#40C1A3"/>
<path d="M180.438 485.154C166.798 473.805 135.683 463.825 82.1512 470.643C47.2878 475.082 29.0759 488.569 39.1376 500.307C51.3698 514.576 86.9623 519.646 139.397 514.924C175.477 511.673 197.491 499.342 180.438 485.154Z" fill="#A9E1D4"/>
<path d="M125.448 471.249C126.057 471.287 126.661 471.331 127.257 471.379C125.839 472.084 123.897 472.752 121.659 473.396C119.717 473.314 117.74 473.263 115.73 473.249C119.175 472.677 122.425 472.006 125.448 471.249ZM46.2145 493.213C46.2486 492.398 46.4053 491.584 46.6881 490.77C46.7222 490.657 46.7631 490.541 46.8074 490.429C46.8142 490.409 46.8244 490.388 46.8347 490.368C46.913 490.163 47.0016 489.955 47.1004 489.754C47.4071 489.09 47.7989 488.439 48.2623 487.799C48.7495 487.134 49.3151 486.48 49.9591 485.839C50.1295 485.669 50.3067 485.499 50.4907 485.332C51.0495 484.817 51.6594 484.31 52.3204 483.815C55.898 481.127 60.9238 478.752 67.091 476.827C67.3533 476.742 67.6191 476.66 67.8883 476.582C71.1388 475.601 74.6926 474.742 78.5054 474.026C78.5054 474.026 78.5122 474.026 78.5156 474.023C80.9552 473.566 83.5005 473.168 86.1411 472.83C89.8925 472.353 93.494 471.972 96.9524 471.682C102.319 471.226 107.334 470.984 112.023 470.919C112.152 470.919 112.278 470.915 112.404 470.912H112.759C113.369 470.905 113.975 470.902 114.575 470.902C114.715 470.902 114.858 470.902 114.997 470.905C118.691 470.912 122.173 471.031 125.448 471.249C126.057 471.287 126.661 471.331 127.257 471.379C132.133 471.757 136.538 472.35 140.511 473.089C141.632 473.297 142.716 473.515 143.765 473.744C148.556 474.79 152.651 476.047 156.134 477.376C161.268 479.335 165.064 481.454 167.769 483.298C168.482 483.781 169.122 484.248 169.688 484.688C170.022 484.947 170.328 485.192 170.615 485.431C171.443 486.119 172.291 486.916 173.064 487.799C173.354 488.126 173.63 488.466 173.892 488.817C174.366 489.455 174.789 490.133 175.133 490.841C175.218 491.025 175.3 491.209 175.375 491.397C175.872 492.599 176.124 493.891 175.995 495.244C175.984 495.359 175.971 495.472 175.954 495.588C175.896 495.99 175.807 496.395 175.678 496.807C175.548 497.223 175.381 497.632 175.18 498.037H175.177C174.99 498.416 174.768 498.794 174.513 499.165C173.572 500.549 172.199 501.867 170.434 503.097C169.78 503.557 169.071 504.004 168.311 504.436C168.001 504.614 167.681 504.791 167.354 504.961C167.108 505.094 166.856 505.223 166.601 505.35C166.464 505.418 166.328 505.486 166.189 505.554C165.32 505.976 164.393 506.385 163.418 506.777C161.967 507.367 160.403 507.922 158.733 508.447H158.73C156.662 509.094 154.433 509.687 152.058 510.222C150.389 510.597 148.648 510.944 146.839 511.261C144.297 511.708 141.619 512.093 138.818 512.413C137.591 512.553 136.344 512.679 135.073 512.794C132.586 513.019 130.143 513.217 127.748 513.387C123.723 513.68 119.826 513.898 116.057 514.042C112.265 514.188 108.605 514.263 105.079 514.263C103.208 514.263 101.375 514.243 99.5829 514.202C98.2199 514.171 96.8809 514.127 95.5657 514.069C94.4481 514.024 93.3475 513.97 92.264 513.902C92.1993 513.902 92.1379 513.898 92.0732 513.892C87.5415 513.622 83.296 513.2 79.3504 512.628C78.226 512.464 77.1255 512.29 76.0556 512.103C74.2395 511.786 72.4983 511.435 70.8356 511.05C68.5731 510.525 66.4538 509.939 64.4776 509.292C62.4196 508.617 60.5183 507.874 58.7738 507.063C58.0753 506.743 57.4007 506.406 56.7533 506.062C56.4398 505.895 56.1331 505.724 55.8299 505.554C55.5811 505.411 55.3359 505.268 55.0973 505.121C54.3886 504.695 53.714 504.252 53.0734 503.796C51.7616 502.859 50.5997 501.86 49.5843 500.801C49.322 500.525 49.0698 500.245 48.8279 499.963C48.8075 499.939 48.7904 499.918 48.7734 499.894C47.2946 498.153 46.4496 496.313 46.252 494.443C46.2077 494.034 46.1941 493.622 46.2145 493.213ZM50.5895 498.453C50.6815 498.562 50.7769 498.668 50.8723 498.773C52.0172 500.048 53.4005 501.234 55.0189 502.327C55.5982 502.719 56.2081 503.101 56.8487 503.465C56.9577 503.533 57.0667 503.595 57.1758 503.656C57.9935 504.116 58.859 504.556 59.7687 504.975C60.1912 505.176 60.6273 505.367 61.0703 505.554C61.7483 505.844 62.4537 506.123 63.1794 506.389C64.9274 507.04 66.8082 507.632 68.8219 508.164C71.0468 508.76 73.4319 509.285 75.9738 509.735C78.1408 510.127 80.4237 510.464 82.8156 510.747C86.2876 511.162 89.9948 511.469 93.9268 511.667C95.9609 511.772 98.0564 511.844 100.213 511.888C110.111 512.089 121.246 511.667 133.502 510.6C133.956 510.563 134.409 510.522 134.865 510.481C136.661 510.317 138.416 510.13 140.119 509.915C142.504 509.619 144.794 509.271 146.978 508.883C149.612 508.413 152.089 507.874 154.396 507.281C156.44 506.76 158.352 506.191 160.11 505.581C160.134 505.571 160.158 505.564 160.181 505.554C161.398 505.135 162.543 504.692 163.609 504.235C163.981 504.075 164.342 503.915 164.693 503.752C165.194 503.52 165.677 503.281 166.141 503.039C166.962 502.617 167.718 502.181 168.413 501.731C169.214 501.22 169.93 500.688 170.557 500.147C171.327 499.479 171.967 498.794 172.458 498.089C172.914 497.445 173.252 496.787 173.46 496.116C173.552 495.823 173.616 495.526 173.657 495.23C173.719 494.77 173.722 494.31 173.661 493.84C173.494 492.528 172.85 491.175 171.732 489.795C171.494 489.506 171.238 489.213 170.959 488.92C170.7 488.644 170.424 488.368 170.124 488.092C170.022 487.993 169.913 487.897 169.804 487.799C169.589 487.604 169.364 487.41 169.129 487.216C168.689 486.848 168.206 486.47 167.684 486.078C167.064 485.618 166.386 485.144 165.643 484.664C161.824 482.18 156.314 479.488 148.512 477.328C147.363 477.011 146.164 476.704 144.913 476.411C143.602 476.105 142.232 475.812 140.804 475.539C140.733 475.526 140.661 475.512 140.586 475.498C134.715 474.388 128.395 473.686 121.659 473.396C119.717 473.314 117.74 473.263 115.73 473.249C114.384 473.239 113.025 473.243 111.648 473.267C107.992 473.318 104.23 473.478 100.367 473.75C95.8587 474.064 91.2146 474.524 86.4342 475.134C83.6572 475.488 80.9825 475.914 78.427 476.405C77.6365 476.558 76.8597 476.718 76.0965 476.882C66.7435 478.889 59.1724 481.795 54.3409 485.192C53.9388 485.471 53.5538 485.758 53.1892 486.051C52.9166 486.265 52.6543 486.483 52.4056 486.705C51.9933 487.063 51.6151 487.427 51.2676 487.799C50.937 488.143 50.6372 488.494 50.368 488.848C49.8808 489.475 49.4889 490.116 49.1925 490.76C49.1107 490.926 49.0392 491.097 48.9744 491.264C48.5621 492.33 48.4361 493.397 48.5962 494.456C48.8007 495.806 49.4685 497.141 50.5895 498.453Z" fill="white"/>
<path d="M90.4005 483.519C90.8741 483.403 91.375 483.291 91.9099 483.178C93.5863 482.831 95.5898 482.5 98.0056 482.228C99.59 482.047 100.5 481.502 100.132 480.97L99.1879 479.604C99.1334 479.526 99.1061 479.444 99.1061 479.366C99.1061 479.165 99.2799 478.974 99.5866 478.81C100.04 478.565 100.786 478.377 101.709 478.309C102.752 478.234 103.791 478.326 104.558 478.531C104.633 478.551 104.701 478.572 104.769 478.596C105.212 478.735 105.539 478.916 105.686 479.131L106.813 480.769C107.076 481.144 107.941 481.509 109.025 481.601C109.314 481.628 109.624 481.635 109.938 481.614C114.746 481.315 118.725 481.478 121.901 481.945C122.201 481.986 122.497 482.034 122.783 482.085C123.475 482.204 124.126 482.337 124.736 482.483C126.906 483.015 128.552 483.71 129.683 484.487C130.303 484.909 130.767 485.359 131.084 485.816C131.561 486.511 131.445 487.168 130.859 487.799C130.78 487.884 130.688 487.972 130.589 488.058C130.307 488.31 129.949 488.555 129.53 488.794C128.6 489.332 127.353 489.846 125.891 490.344C123.748 491.073 121.141 491.768 118.357 492.436C116.94 492.777 115.478 493.111 114.01 493.441C113.086 493.652 112.251 493.86 111.505 494.058C110.524 494.324 109.693 494.579 109.001 494.831C107.505 495.373 106.646 495.908 106.313 496.491C106.091 496.869 106.098 497.271 106.292 497.71C106.36 497.86 106.449 498.014 106.558 498.174C106.718 498.409 106.922 498.634 107.171 498.848C109.032 500.47 113.318 501.489 119.887 501.009C120.054 500.995 120.221 500.985 120.388 500.968C124.548 500.641 128.245 499.99 131.145 499.237C132.705 498.831 134.999 498.958 136.055 499.51L136.654 499.826C137.527 500.283 137.247 500.879 135.98 501.227C133.37 501.935 129.809 502.579 125.993 503.005C125.349 503.077 124.811 503.203 124.419 503.367C123.819 503.615 123.56 503.942 123.785 504.269L124.671 505.554L124.818 505.769C124.852 505.82 124.875 505.871 124.889 505.925C124.927 506.082 124.855 506.232 124.698 506.375C124.323 506.709 123.448 506.978 122.296 507.06L122.19 507.07C120.398 507.2 118.616 506.832 118.214 506.249L117.85 505.721L117.734 505.554L117.011 504.505C116.681 504.024 115.393 503.625 113.887 503.66C110.725 503.731 107.887 503.683 105.379 503.523C104.404 503.462 103.481 503.384 102.605 503.288C96.1793 502.603 92.4347 501.05 91.4431 498.825C91.4261 498.784 91.4091 498.739 91.392 498.699C91.3852 498.685 91.3818 498.668 91.375 498.654C91.0513 497.799 91.2115 496.988 91.8146 496.215C92.2064 495.707 92.789 495.213 93.5489 494.736C93.9339 494.494 94.3632 494.259 94.8368 494.024C95.2491 493.819 95.692 493.618 96.1725 493.421C98.4962 492.453 101.58 491.55 105.297 490.688C105.648 490.606 105.996 490.524 106.336 490.45C106.551 490.398 106.762 490.354 106.97 490.306C111.13 489.376 114.449 488.77 116.316 488.109C116.606 488.01 116.858 487.904 117.076 487.799C117.212 487.73 117.335 487.662 117.444 487.594C118 487.233 118.149 486.834 117.812 486.347C117.066 485.267 114.425 484.187 109.56 484.023C109.151 484.006 108.728 484 108.289 484C107.171 484 105.951 484.044 104.626 484.139C101.72 484.354 99.3651 484.678 97.4741 485.025C96.9562 485.121 96.4757 485.216 96.026 485.311C95.6546 485.393 95.307 485.471 94.9799 485.55C93.8998 485.805 92.5096 485.826 91.4159 485.635C90.9457 485.553 90.5266 485.431 90.2131 485.274L89.6168 484.974C88.673 484.497 89.007 483.86 90.4005 483.519Z" fill="white"/>
<path d="M184.675 487.799V477.553L34.7815 476.626L34.9927 487.799H184.675Z" fill="#40C1A3"/>
<path d="M178.801 477.267C165.162 465.917 134.046 455.937 80.5145 462.755C45.6512 467.195 27.4392 480.681 37.5009 492.419C49.7331 506.689 85.3256 511.759 137.76 507.036C173.84 503.786 195.855 491.458 178.801 477.267Z" fill="#40C1A3"/>
<path d="M178.801 467.399C165.162 456.049 134.046 446.069 80.5145 452.887C45.6512 457.327 27.4392 470.813 37.5009 482.551C49.7331 496.821 85.3256 501.891 137.76 497.169C173.84 493.918 195.855 481.59 178.801 467.399Z" fill="#A9E1D4"/>
<path d="M45.0485 473.015C45.0621 472.963 45.0826 472.912 45.103 472.861C45.1234 472.796 45.1473 472.735 45.1712 472.67C45.4335 471.992 45.7776 471.321 46.2035 470.664C46.9123 469.56 47.8459 468.49 48.9839 467.457C49.7233 466.786 50.5478 466.132 51.4576 465.498C51.9142 465.178 52.3946 464.861 52.8955 464.551C55.4986 462.932 58.6606 461.447 62.2996 460.132C64.2485 459.423 66.3338 458.769 68.5451 458.166C70.7292 457.569 73.0359 457.028 75.4517 456.547C78.3206 455.971 81.3463 455.477 84.5049 455.075C85.0943 455 85.677 454.929 86.2596 454.857C98.5293 453.375 109.163 452.942 118.349 453.232C123.539 453.392 128.268 453.78 132.568 454.343C134.204 454.554 135.778 454.792 137.294 455.051C137.536 455.092 137.778 455.133 138.02 455.177C138.425 455.249 138.824 455.324 139.219 455.399C139.338 455.419 139.461 455.443 139.58 455.467C141.948 455.92 144.16 456.428 146.224 456.973C146.333 457.004 146.443 457.031 146.552 457.062C147.492 457.314 148.398 457.573 149.274 457.838C149.495 457.907 149.714 457.971 149.932 458.04C151.918 458.66 153.744 459.31 155.421 459.978C157.434 460.779 159.23 461.604 160.825 462.418C164.583 464.336 167.227 466.217 168.982 467.675C169.333 467.968 169.69 468.278 170.041 468.609C170.317 468.868 170.593 469.137 170.859 469.42C170.88 469.437 170.897 469.454 170.914 469.474C171.633 470.234 172.307 471.066 172.869 471.962C173.203 472.5 173.5 473.059 173.738 473.641C174.232 474.844 174.484 476.136 174.355 477.488C174.307 477.999 174.205 478.524 174.038 479.052C173.895 479.509 173.708 479.962 173.476 480.405C172.696 481.911 171.415 483.345 169.684 484.688C169.07 485.165 168.402 485.628 167.68 486.078C167.326 486.303 166.954 486.521 166.573 486.739H166.569C166.518 486.77 166.471 486.797 166.419 486.824C165.881 487.124 165.319 487.421 164.733 487.707C164.685 487.731 164.641 487.754 164.593 487.775C164.579 487.785 164.562 487.792 164.545 487.799C164.467 487.836 164.389 487.877 164.307 487.911C161.435 489.284 158 490.511 154.082 491.567C151.819 492.174 149.393 492.726 146.821 493.213C144.698 493.615 142.473 493.973 140.156 494.286C139.764 494.341 139.369 494.392 138.97 494.44C137.362 494.644 135.71 494.828 134.016 494.985C133.825 495.005 133.631 495.022 133.437 495.039C123.695 495.915 114.639 496.402 106.308 496.491C105.715 496.498 105.129 496.504 104.547 496.504C104.175 496.508 103.807 496.508 103.443 496.508C99.3811 496.508 95.5036 496.409 91.8101 496.215C88.1677 496.024 84.7025 495.738 81.4281 495.353C80.1606 495.21 78.9237 495.049 77.7142 494.872C77.169 494.794 76.6272 494.712 76.0957 494.627C75.6255 494.552 75.1587 494.474 74.6987 494.395C72.1228 493.952 69.7036 493.445 67.4344 492.869C62.1974 491.533 57.7747 489.843 54.1902 487.799C53.9824 487.679 53.7745 487.56 53.5735 487.441C53.1714 487.199 52.7796 486.954 52.4014 486.705C52.0164 486.453 51.645 486.194 51.2838 485.935C51.0112 485.737 50.7455 485.536 50.4865 485.332C49.7233 484.739 49.018 484.119 48.3706 483.475C47.9515 483.063 47.5596 482.64 47.1882 482.207C46.8748 481.843 46.592 481.475 46.3364 481.103C45.3483 479.676 44.7725 478.194 44.6124 476.688C44.5715 476.296 44.5578 475.901 44.5715 475.505C44.6021 474.677 44.7589 473.846 45.0451 473.015H45.0485ZM48.3808 479.969C48.5546 480.214 48.7454 480.456 48.9532 480.698C48.9669 480.715 48.9839 480.732 48.9975 480.749C49.9345 481.836 51.0453 482.858 52.3196 483.816C52.9534 484.289 53.6246 484.749 54.3401 485.192C54.8955 485.536 55.4748 485.874 56.0813 486.197C56.1835 486.252 56.2891 486.31 56.3947 486.364C57.3488 486.865 58.3642 487.346 59.4375 487.799C63.165 489.38 67.5945 490.675 72.685 491.673C75.387 492.201 78.2729 492.647 81.3395 493.009C84.6071 493.397 88.0791 493.69 91.7487 493.884C92.7641 493.939 93.7931 493.986 94.8358 494.024C98.1545 494.15 101.62 494.198 105.235 494.174C107.279 494.16 109.368 494.123 111.504 494.058C117.341 493.888 123.518 493.537 130.016 493.002C131.079 492.917 132.152 492.825 133.232 492.726C133.975 492.658 134.715 492.586 135.44 492.511C137.113 492.337 138.745 492.14 140.33 491.922C143.359 491.499 146.224 491.002 148.906 490.433C152.47 489.669 155.704 488.787 158.549 487.799C159.588 487.438 160.579 487.063 161.513 486.671C161.714 486.589 161.912 486.504 162.109 486.419C162.637 486.191 163.152 485.955 163.642 485.717C164.351 485.376 165.019 485.025 165.643 484.664C166.416 484.221 167.125 483.768 167.769 483.298C169.506 482.04 170.754 480.698 171.445 479.301C171.602 478.991 171.728 478.677 171.827 478.361C171.919 478.068 171.984 477.771 172.021 477.475C172.055 477.243 172.069 477.008 172.069 476.773C172.069 474.974 171.152 473.096 169.326 471.168C168.798 470.602 168.184 470.033 167.496 469.461C166.079 468.278 164.242 466.963 161.908 465.624C160.722 464.946 159.407 464.258 157.952 463.583C155.649 462.506 152.988 461.457 149.932 460.483C149.499 460.343 149.056 460.207 148.603 460.07C148.426 460.019 148.245 459.965 148.064 459.91C145.931 459.287 143.621 458.704 141.117 458.176C140.412 458.026 139.689 457.883 138.95 457.743C138.94 457.74 138.926 457.74 138.916 457.736C138.129 457.586 137.335 457.447 136.531 457.317C135.202 457.092 133.853 456.888 132.479 456.711C129.011 456.251 125.406 455.92 121.668 455.723C120.309 455.648 118.935 455.593 117.542 455.556C115.958 455.508 114.353 455.487 112.727 455.487C104.659 455.487 96.0556 456.029 86.9547 457.116C86.2392 457.198 85.5202 457.287 84.7979 457.379C81.5848 457.787 78.5114 458.295 75.5982 458.888C72.8519 459.447 70.2522 460.084 67.8228 460.789C63.1548 462.135 59.1104 463.73 55.853 465.498C54.4356 466.268 53.1646 467.069 52.0607 467.9C51.9585 467.975 51.8597 468.05 51.7643 468.125C50.5853 469.038 49.6006 469.985 48.834 470.957C48.7965 471.001 48.7624 471.049 48.7283 471.093C48.207 471.767 47.7913 472.452 47.4881 473.144C47.4336 473.263 47.3859 473.386 47.3382 473.505C47.052 474.248 46.9054 474.987 46.8986 475.727C46.8918 476.05 46.9123 476.378 46.9634 476.701C47.1269 477.802 47.6005 478.892 48.3808 479.969Z" fill="white"/>
<path d="M88.7669 465.764C89.1383 465.675 89.5267 465.587 89.9356 465.498C91.6801 465.12 93.7893 464.766 96.3686 464.473C97.953 464.292 98.8627 463.747 98.4947 463.215L97.5543 461.849C97.5543 461.849 97.5338 461.818 97.5304 461.805C97.4895 461.74 97.4725 461.675 97.4725 461.61C97.4725 461.409 97.6429 461.219 97.9461 461.055C98.3993 460.81 99.1455 460.622 100.072 460.554C101.118 460.476 102.161 460.571 102.924 460.776C103.473 460.926 103.882 461.13 104.049 461.375L104.205 461.604L105.18 463.014C105.51 463.491 106.819 463.951 108.301 463.856C110.655 463.709 112.809 463.675 114.768 463.733C118.962 463.852 122.257 464.394 124.693 465.178C125.014 465.28 125.32 465.386 125.61 465.498C126.394 465.798 127.072 466.122 127.641 466.469C128.465 466.967 129.065 467.505 129.446 468.06C129.654 468.364 129.75 468.66 129.74 468.95C129.736 469.205 129.648 469.457 129.487 469.706C129.354 469.911 129.174 470.108 128.949 470.306C128.53 470.674 127.958 471.032 127.256 471.379C125.838 472.084 123.896 472.752 121.657 473.396C118.881 474.194 115.64 474.95 112.373 475.686C111.797 475.819 111.258 475.948 110.751 476.078C109.378 476.422 108.257 476.749 107.364 477.076C106.052 477.55 105.231 478.02 104.825 478.521C104.805 478.548 104.785 478.572 104.767 478.596C104.365 479.144 104.451 479.734 104.921 480.419C105.548 481.325 106.815 482.102 108.703 482.633C110.175 483.046 112.018 483.308 114.233 483.363C115.46 483.393 116.799 483.359 118.25 483.253C119.964 483.131 121.603 482.95 123.146 482.729C123.688 482.654 124.22 482.572 124.734 482.483C126.489 482.194 128.094 481.85 129.508 481.482C131.072 481.076 133.365 481.202 134.418 481.754L135.021 482.071C135.893 482.528 135.61 483.124 134.343 483.468C133.007 483.833 131.423 484.18 129.682 484.487C128.254 484.742 126.721 484.971 125.133 485.162C124.874 485.192 124.615 485.223 124.356 485.25C122.734 485.431 121.773 485.973 122.148 486.514L122.949 487.68L123.034 487.799L123.18 488.013C123.583 488.596 122.455 489.175 120.659 489.305L120.557 489.315C118.761 489.445 116.983 489.077 116.581 488.494L116.315 488.109L116.1 487.799L115.96 487.594L115.378 486.749C115.047 486.269 113.759 485.87 112.25 485.904C110.649 485.938 109.132 485.945 107.698 485.918C103.933 485.857 100.744 485.594 98.1403 485.145C97.9121 485.107 97.6906 485.066 97.4725 485.025C95.0772 484.569 93.2236 483.945 91.9084 483.179C90.8078 482.535 90.0889 481.785 89.755 480.943C89.5812 480.504 89.5335 480.075 89.6085 479.655C89.7788 478.712 90.5693 477.822 91.9118 476.981C92.7091 476.48 93.6972 475.999 94.8659 475.529C96.3992 474.912 98.2426 474.323 100.365 473.751C101.401 473.475 102.502 473.202 103.664 472.933C106.972 472.159 109.844 471.601 112.015 471.093C112.137 471.062 112.257 471.035 112.373 471.008H112.376C112.505 470.974 112.635 470.943 112.758 470.912C113.408 470.749 113.977 470.592 114.465 470.428H114.468C116.035 469.907 116.707 469.359 116.178 468.592C116.138 468.534 116.093 468.476 116.042 468.418C115.879 468.231 115.654 468.043 115.371 467.863C114.938 467.59 114.366 467.331 113.65 467.103C111.483 466.415 107.987 466.019 102.992 466.384C98.631 466.704 95.5168 467.273 93.3463 467.791C91.7994 468.163 89.6221 468.043 88.5795 467.519L87.9832 467.215C87.036 466.742 87.3699 466.105 88.7669 465.764Z" fill="white"/>
<path d="M149.928 465.498V455.252L0.0343628 454.325L0.249023 465.498H149.928Z" fill="#40C1A3"/>
<path d="M144.054 454.966C130.414 443.617 99.2988 433.637 45.7669 440.455C10.9036 444.894 -7.3084 458.38 2.75673 470.118C14.9889 484.388 50.5814 489.458 103.016 484.736C139.096 481.485 161.11 469.158 144.057 454.97L144.054 454.966Z" fill="#40C1A3"/>
<path d="M144.054 445.098C130.414 433.749 99.2988 423.769 45.7669 430.587C10.9036 435.026 -7.3084 448.512 2.75673 460.25C14.9889 474.52 50.5814 479.59 103.016 474.868C139.096 471.617 161.11 459.29 144.057 445.102L144.054 445.098Z" fill="#A9E1D4"/>
<path d="M10.3038 450.71C10.3412 450.598 10.3821 450.482 10.4264 450.369C11.2271 448.287 12.8081 446.294 15.0671 444.441C17.2274 442.665 20.0077 441.016 23.3264 439.527C26.3419 438.178 29.8002 436.962 33.6403 435.905C33.722 435.885 33.8038 435.861 33.8856 435.841C34.7545 435.602 35.6438 435.377 36.5501 435.159C40.6048 434.178 45.0308 433.37 49.7602 432.771C54.0159 432.229 58.0774 431.813 61.9548 431.506C67.7745 431.05 73.1784 430.842 78.1871 430.842C78.1871 430.839 78.194 430.842 78.1974 430.842C79.3013 430.842 80.3883 430.852 81.4547 430.873C90.191 431.033 97.6666 431.834 104.035 433.009C107.575 433.667 110.771 434.437 113.654 435.275C117.48 436.389 120.748 437.629 123.521 438.887C124.523 439.34 125.46 439.796 126.336 440.25C129.954 442.124 132.52 443.95 134.234 445.374C135.927 446.785 137.712 448.635 138.748 450.785C138.837 450.969 138.919 451.153 138.994 451.34C139.147 451.701 139.273 452.073 139.375 452.448C139.42 452.618 139.46 452.788 139.491 452.962C139.638 453.681 139.685 454.424 139.614 455.187C139.614 455.228 139.607 455.269 139.6 455.31C139.6 455.364 139.59 455.415 139.58 455.467C139.525 455.889 139.433 456.315 139.297 456.748C139.195 457.082 139.065 457.409 138.915 457.736C138.776 458.039 138.615 458.342 138.435 458.639C138.319 458.833 138.193 459.024 138.06 459.211C137.436 460.107 136.632 460.973 135.654 461.808C134.966 462.397 134.189 462.969 133.334 463.525C132.278 464.21 131.095 464.867 129.797 465.498C129.112 465.832 128.394 466.155 127.641 466.469C125.896 467.208 123.978 467.893 121.899 468.527C119.61 469.229 117.126 469.862 114.468 470.428H114.465C113.797 470.571 113.119 470.707 112.427 470.84C112.291 470.867 112.158 470.895 112.022 470.919C111.575 471.004 111.122 471.086 110.669 471.167C106.951 471.825 102.948 472.35 98.6922 472.735C91.5982 473.375 84.8688 473.805 78.5143 474.023C78.5108 474.026 78.5074 474.026 78.504 474.026C75.1274 474.145 71.8598 474.203 68.6978 474.203C67.0623 474.203 65.4541 474.186 63.8799 474.152C59.229 474.064 54.837 473.832 50.7108 473.464C49.6171 473.368 48.5437 473.259 47.4875 473.144C46.7413 473.062 46.0053 472.973 45.2796 472.881C45.2216 472.874 45.1603 472.868 45.1024 472.861C44.3834 472.769 43.6713 472.673 42.9694 472.571C40.523 472.217 38.2026 471.804 36.0084 471.338C29.2994 469.91 23.7693 467.958 19.4523 465.498C16.6004 463.872 14.2767 462.026 12.4947 459.961C12.4776 459.944 12.464 459.923 12.447 459.906C10.9375 458.145 10.0721 456.281 9.87102 454.383C9.73814 453.167 9.88126 451.933 10.3038 450.71ZM12.9683 456.605C13.2886 457.204 13.7009 457.801 14.2085 458.393C16.6039 461.187 20.127 463.562 24.6995 465.498C28.301 467.024 32.5534 468.285 37.4224 469.269C40.1584 469.818 43.0887 470.285 46.2029 470.663C47.065 470.769 47.9441 470.864 48.8334 470.956C48.8845 470.963 48.9356 470.966 48.9867 470.973C49.7329 471.048 50.4927 471.12 51.2594 471.184C58.1966 471.784 65.9482 471.999 74.4493 471.815C74.4493 471.815 74.4516 471.815 74.4562 471.815C76.8106 471.767 79.2195 471.685 81.6864 471.576C87.0256 471.334 92.6306 470.953 98.4844 470.425C103.609 469.961 108.376 469.286 112.693 468.428C112.88 468.394 113.064 468.356 113.248 468.319C113.967 468.172 114.676 468.019 115.371 467.862C118.461 467.167 121.283 466.373 123.801 465.498C124.104 465.392 124.4 465.286 124.693 465.177C127.78 464.05 130.37 462.796 132.387 461.443C133.491 460.7 134.424 459.93 135.174 459.136C135.729 458.543 136.186 457.937 136.53 457.317C136.762 456.901 136.946 456.482 137.079 456.056L137.14 455.852C137.198 455.63 137.246 455.402 137.276 455.173C137.283 455.133 137.287 455.092 137.293 455.051C137.314 454.857 137.324 454.662 137.324 454.468C137.324 454.138 137.293 453.804 137.229 453.466C137.147 453.01 137.007 452.55 136.806 452.087C136.626 451.657 136.39 451.221 136.108 450.785C135.706 450.151 135.194 449.511 134.585 448.867C134.05 448.301 133.44 447.732 132.748 447.156C130.53 445.309 127.296 443.132 122.717 441.054C122.097 440.771 121.453 440.492 120.782 440.216C117.616 438.907 113.882 437.66 109.49 436.587C107.824 436.178 106.066 435.793 104.205 435.442C102.372 435.094 100.498 434.788 98.5764 434.522C92.1741 433.629 85.2981 433.183 77.9827 433.183C72.6333 433.183 67.0487 433.421 61.2427 433.898C57.5969 434.195 53.8659 434.587 50.0498 435.074C44.8094 435.742 39.9301 436.669 35.5347 437.807C34.717 438.021 33.9163 438.239 33.136 438.468C31.8276 438.842 30.5703 439.238 29.3641 439.65C28.819 439.837 28.284 440.028 27.7627 440.222C26.3725 440.737 25.0607 441.279 23.8307 441.841C23.6808 441.906 23.5309 441.974 23.3843 442.045C19.3365 443.943 16.2393 446.086 14.3278 448.366C14.2051 448.505 14.0927 448.649 13.9836 448.788C13.3737 449.579 12.907 450.386 12.5935 451.204C12.1812 452.271 12.0551 453.337 12.2152 454.397C12.3243 455.139 12.5764 455.875 12.9683 456.605Z" fill="white"/>
<path d="M173.233 450.785V440.54L23.3366 439.613L23.5513 450.785H173.233Z" fill="#40C1A3"/>
<path d="M167.36 440.253C153.72 428.903 122.605 418.923 69.0731 425.741C34.2097 430.181 15.9978 443.667 26.0595 455.405C38.2916 469.675 73.8842 474.745 126.319 470.023C162.399 466.772 184.413 454.444 167.36 440.253Z" fill="#40C1A3"/>
<path d="M167.36 430.386C153.72 419.036 122.605 409.056 69.0731 415.874C34.2097 420.314 15.9978 433.8 26.0595 445.538C38.2916 459.808 73.8842 464.878 126.319 460.155C162.399 456.905 184.413 444.577 167.36 430.389V430.386Z" fill="#A9E1D4"/>
<path d="M33.1364 438.468C33.1671 437.647 33.3238 436.819 33.61 435.998C33.6168 435.967 33.627 435.936 33.6407 435.906C33.6679 435.824 33.6986 435.742 33.7293 435.66C34.1927 434.465 34.9082 433.296 35.8656 432.168C40.6495 426.519 51.3961 421.847 65.7816 419.193C68.1156 418.76 70.545 418.382 73.063 418.062C83.7074 416.706 93.1455 416.133 101.497 416.133C113.559 416.133 123.351 417.329 131.232 419.098C145.703 422.338 153.727 427.493 157.536 430.662C159.376 432.192 161.319 434.24 162.296 436.628C162.794 437.831 163.046 439.122 162.917 440.475C162.869 440.989 162.767 441.511 162.6 442.039C162.371 442.768 162.034 443.48 161.584 444.175C160.017 446.608 157.124 448.84 153.11 450.785C152.006 451.317 150.821 451.831 149.55 452.322C148.613 452.687 147.635 453.034 146.609 453.372C146.388 453.443 146.166 453.518 145.938 453.586C145.093 453.855 144.217 454.118 143.318 454.366C142.285 454.653 141.219 454.929 140.122 455.191C139.948 455.232 139.774 455.273 139.6 455.31C139.474 455.341 139.345 455.372 139.219 455.399C138.537 455.556 137.846 455.706 137.14 455.852C135.641 456.159 134.084 456.448 132.479 456.711C129.191 457.252 125.685 457.692 121.995 458.026C120.152 458.193 118.332 458.343 116.537 458.479C107.753 459.157 99.5615 459.494 92.0007 459.494C86.1538 459.494 80.6817 459.293 75.598 458.888C73.155 458.694 70.804 458.455 68.5449 458.166C67.7783 458.07 67.0185 457.968 66.2723 457.859C64.2722 457.569 62.3573 457.242 60.5276 456.874C58.657 456.503 56.875 456.091 55.1816 455.641C54.0026 455.327 52.8646 454.993 51.7709 454.642C48.3363 453.542 45.3277 452.254 42.7518 450.785C39.876 449.147 37.5386 447.279 35.7498 445.194C34.9798 444.298 34.3766 443.371 33.9439 442.427C33.5282 441.524 33.2727 440.604 33.1739 439.674C33.1296 439.272 33.116 438.87 33.1364 438.468ZM36.3052 441.954C36.6187 442.536 37.0207 443.112 37.5113 443.685C39.9067 446.479 43.4264 448.85 47.9956 450.785C50.3193 451.774 52.9123 452.646 55.771 453.402C57.5667 453.883 59.4679 454.315 61.468 454.704C62.9093 454.983 64.4017 455.239 65.9486 455.47C68.9266 455.917 72.0953 456.278 75.4515 456.547C79.0701 456.84 82.9101 457.031 86.9545 457.116C96.0656 457.307 106.233 456.97 117.358 456.087C118.779 455.975 120.216 455.852 121.668 455.723C121.709 455.719 121.746 455.716 121.787 455.712C123.685 455.542 125.532 455.341 127.324 455.113C129.13 454.884 130.878 454.625 132.568 454.343C134.176 454.073 135.733 453.78 137.229 453.467C137.999 453.303 138.752 453.136 139.491 452.963C139.917 452.864 140.336 452.762 140.752 452.659C140.817 452.642 140.878 452.625 140.94 452.612C142.204 452.291 143.413 451.958 144.572 451.607C145.447 451.344 146.292 451.068 147.103 450.785C147.625 450.608 148.132 450.421 148.623 450.237C153.506 448.383 157.076 446.203 159.005 443.821C159.656 443.017 160.119 442.192 160.382 441.347C160.474 441.054 160.538 440.758 160.579 440.461C160.852 438.448 159.949 436.332 157.881 434.151C157.349 433.589 156.739 433.02 156.051 432.447C151.85 428.952 144.04 424.287 130.336 421.302C129.42 421.105 128.479 420.914 127.508 420.73C112.288 417.851 94.0689 417.728 73.356 420.365C70.4428 420.737 67.642 421.186 64.9741 421.711C53.7744 423.909 44.9086 427.371 39.9135 431.439C38.8641 432.294 37.985 433.173 37.2899 434.076C37.0139 434.434 36.7652 434.795 36.5505 435.16C36.2881 435.603 36.0701 436.045 35.8963 436.495C35.7259 436.935 35.6067 437.371 35.5351 437.807C35.4295 438.434 35.4227 439.064 35.5181 439.688C35.6339 440.448 35.8963 441.204 36.3052 441.954Z" fill="white"/>
<path d="M77.3224 428.75C77.871 428.617 78.4604 428.484 79.0976 428.355C80.716 428.028 82.6343 427.718 84.9274 427.459C86.5118 427.278 87.4182 426.733 87.0536 426.201L86.1098 424.835C86.0552 424.757 86.028 424.675 86.028 424.597C86.028 424.399 86.1984 424.205 86.505 424.041C86.9582 423.796 87.7044 423.608 88.6312 423.54C89.6738 423.465 90.713 423.557 91.4796 423.762C92.0316 423.908 92.4405 424.116 92.6075 424.361L93.7353 425.997C94.0658 426.477 95.3742 426.937 96.8598 426.845C109.29 426.069 116.172 428.389 118.005 431.05C118.435 431.674 118.384 432.266 117.944 432.839C117.283 433.701 115.743 434.508 113.654 435.275C112.434 435.728 111.024 436.161 109.491 436.587C106.884 437.309 103.92 438.001 100.931 438.672C100.083 438.866 99.3096 439.057 98.6111 439.241C97.5514 439.524 96.6587 439.793 95.9228 440.062C93.122 441.081 92.5529 442.062 93.4797 443.405C94.8563 445.405 99.3675 446.785 106.809 446.24C111.174 445.923 115.051 445.252 118.067 444.468C119.089 444.202 120.425 444.165 121.522 444.325C122.101 444.41 122.612 444.55 122.977 444.74L123.576 445.057C124.449 445.514 124.169 446.11 122.902 446.458C122.183 446.652 121.396 446.843 120.547 447.023C118.312 447.504 115.682 447.926 112.911 448.236C111.293 448.417 110.332 448.959 110.707 449.5L111.508 450.669L111.589 450.785L111.736 451C112.141 451.582 111.014 452.162 109.218 452.291L109.112 452.301C107.32 452.431 105.538 452.066 105.136 451.48L104.69 450.833L104.656 450.785L103.933 449.736C103.603 449.255 102.315 448.856 100.809 448.891C87.2342 449.194 79.6495 447.316 78.3139 443.929C77.7449 442.495 78.5354 441.183 80.4707 439.967C81.3941 439.384 82.5798 438.829 84.0007 438.29C86.1984 437.456 88.9651 436.672 92.219 435.919C94.5973 435.364 96.7473 434.917 98.577 434.522C101.098 433.98 103.003 433.527 104.036 433.009C104.853 432.6 105.129 432.151 104.734 431.578C103.766 430.174 99.6163 428.781 91.5478 429.37C87.1899 429.69 84.0756 430.259 81.9018 430.781C81.7587 430.815 81.6088 430.846 81.4554 430.873C80.4094 431.047 79.1691 431.03 78.198 430.842C78.198 430.842 78.1912 430.839 78.1878 430.842C77.7789 430.757 77.4144 430.645 77.135 430.505L76.5387 430.202C75.5949 429.728 75.9254 429.091 77.3224 428.75Z" fill="white"/>
<path d="M213.896 503.83C213.896 503.83 206.721 464.881 186.904 452.854C167.084 440.829 132.677 440.451 143.379 450.513C154.082 460.575 171.309 469.655 171.309 469.655C171.309 469.655 133.59 451.985 133.28 462.595C132.967 473.205 165.918 488.255 165.918 488.255C165.918 488.255 119.361 470.807 122.312 480.923C125.263 491.043 160.726 504.048 160.726 504.048C160.726 504.048 116.762 489.543 120.462 501.217C124.166 512.89 156.872 512.968 156.562 523.579C156.249 534.189 158.6 576.439 187.987 580.91L213.903 503.823L213.896 503.83Z" fill="#EC6261"/>
<path d="M184.979 481.639C185.142 481.639 185.309 481.615 185.476 481.56C186.342 481.284 186.822 480.361 186.546 479.495C184.12 471.832 172.28 468.231 171.775 468.081C170.907 467.822 169.99 468.316 169.731 469.188C169.472 470.057 169.966 470.974 170.838 471.233C170.866 471.24 173.626 472.074 176.587 473.7C179.169 475.117 182.451 477.448 183.415 480.487C183.636 481.189 184.284 481.635 184.982 481.635L184.979 481.639Z" fill="#E84949"/>
<path d="M182.243 502.249C182.512 502.249 182.784 502.185 183.036 502.045C183.83 501.605 184.12 500.604 183.68 499.81C178.304 490.089 166.842 486.814 166.358 486.678C165.482 486.436 164.576 486.947 164.334 487.823C164.092 488.699 164.603 489.605 165.479 489.847C165.608 489.884 176.113 492.917 180.805 501.398C181.104 501.939 181.667 502.246 182.246 502.246L182.243 502.249Z" fill="#E84949"/>
<path d="M176.051 517.293C176.171 517.293 176.293 517.279 176.416 517.252C177.302 517.051 177.857 516.172 177.656 515.286C175.755 506.884 161.782 502.655 161.189 502.481C160.316 502.222 159.403 502.72 159.144 503.592C158.885 504.464 159.383 505.378 160.255 505.637C163.788 506.686 173.227 510.598 174.45 516.012C174.624 516.775 175.302 517.293 176.051 517.293Z" fill="#E84949"/>
<path d="M39.0936 578.773C51.4655 586.93 89.7464 607.016 111.512 599.04C133.278 591.063 155.054 564.418 140.512 566.497C125.969 568.575 108.122 576.368 108.122 576.368C108.122 576.368 145.473 557.931 137.377 551.065C129.281 544.2 96.9528 560.544 96.9528 560.544C96.9528 560.544 139.649 535.065 129.901 531.054C120.153 527.044 87.8553 546.629 87.8553 546.629C87.8553 546.629 126.634 521.337 115.202 516.941C103.771 512.546 83.293 538.049 75.1973 531.184C67.1015 524.318 34.2928 497.128 12.4555 517.296C12.4555 517.296 15.3414 563.117 39.0936 578.777V578.773Z" fill="#EC6261"/>
<path d="M90.2272 579.567C90.125 579.696 90.0398 579.843 89.9785 580.003C89.6514 580.851 90.0739 581.802 90.9223 582.129C98.4251 585.015 108.63 578.017 109.059 577.717C109.806 577.199 109.989 576.173 109.472 575.427C108.954 574.681 107.928 574.497 107.182 575.015C107.158 575.032 104.783 576.667 101.665 577.962C98.943 579.093 95.0758 580.204 92.1012 579.059C91.4164 578.793 90.6599 579.022 90.2238 579.567H90.2272Z" fill="#E84949"/>
<path d="M75.8345 564.565C75.6675 564.776 75.5483 565.028 75.5006 565.314C75.3472 566.211 75.9503 567.059 76.8464 567.212C87.7974 569.083 97.5082 562.17 97.9171 561.877C98.653 561.345 98.82 560.316 98.2851 559.58C97.7535 558.844 96.7246 558.677 95.9886 559.209C95.8795 559.287 86.9524 565.601 77.3984 563.969C76.7885 563.863 76.1956 564.112 75.8345 564.565Z" fill="#E84949"/>
<path d="M67.9463 550.336C67.8713 550.431 67.8066 550.534 67.7521 550.646C67.3568 551.464 67.6976 552.448 68.5153 552.844C76.2669 556.605 88.2912 548.326 88.7989 547.971C89.5451 547.45 89.7257 546.428 89.2078 545.682C88.6899 544.935 87.6642 544.755 86.918 545.273C83.8924 547.378 74.9449 552.309 69.9498 549.883C69.2445 549.542 68.4165 549.746 67.9463 550.336Z" fill="#E84949"/>
<path d="M38.5818 511.04C80.7163 501.595 94.7611 504.375 94.0149 511.435C91.5515 518.757 73.1555 516.986 61.2709 529.596C36.7828 520.918 38.5818 511.04 38.5818 511.04Z" fill="#EC6261"/>
</svg>
