<svg width="240" height="18" viewBox="0 0 240 18" fill="none" xmlns="http://www.w3.org/2000/svg">
<path d="M1.27239 1.30408V8.48008H10.5783V9.58408H1.27239V17.0001H0V0.200078H11.676V1.30408H1.27239Z" fill="white"/>
<path d="M23.573 17.1201C21.3609 17.1201 19.6395 16.5041 18.4087 15.2721C17.1945 14.0401 16.5874 12.2401 16.5874 9.87208V0.200078H17.8598V9.82408C17.8598 11.8881 18.3504 13.4321 19.3318 14.4561C20.3131 15.4801 21.7352 15.9921 23.598 15.9921C25.4442 15.9921 26.858 15.4801 27.8393 14.4561C28.8206 13.4321 29.3113 11.8881 29.3113 9.82408V0.200078H30.5836V9.87208C30.5836 12.2401 29.9682 14.0401 28.7374 15.2721C27.5066 16.5041 25.7852 17.1201 23.573 17.1201Z" fill="white"/>
<path d="M51.7394 0.200078V17.0001H50.6915L38.791 2.40808V17.0001H37.5186V0.200078H38.5914L50.467 14.7921V0.200078H51.7394Z" fill="white"/>
<path d="M58.8361 0.200078H65.7469C67.5599 0.200078 69.1649 0.560078 70.562 1.28008C71.9758 2.00008 73.0735 3.00008 73.8553 4.28008C74.637 5.54408 75.0279 6.98408 75.0279 8.60008C75.0279 10.2161 74.637 11.6641 73.8553 12.9441C73.0735 14.2081 71.9758 15.2001 70.562 15.9201C69.1649 16.6401 67.5599 17.0001 65.7469 17.0001H58.8361V0.200078ZM65.6471 15.8961C67.2605 15.8961 68.6826 15.5921 69.9134 14.9841C71.1442 14.3601 72.0922 13.4961 72.7575 12.3921C73.4228 11.2881 73.7555 10.0241 73.7555 8.60008C73.7555 7.17608 73.4228 5.91208 72.7575 4.80808C72.0922 3.70408 71.1442 2.84808 69.9134 2.24008C68.6826 1.61608 67.2605 1.30408 65.6471 1.30408H60.1085V15.8961H65.6471Z" fill="white"/>
<path d="M80.446 0.200078H81.7184V17.0001H80.446V0.200078Z" fill="white"/>
<path d="M103.023 0.200078V17.0001H101.975L90.0743 2.40808V17.0001H88.8019V0.200078H89.8747L101.75 14.7921V0.200078H103.023Z" fill="white"/>
<path d="M122.594 8.67208H123.816V14.9601C123.051 15.6641 122.12 16.2001 121.022 16.5681C119.941 16.9361 118.793 17.1201 117.579 17.1201C115.849 17.1201 114.286 16.7521 112.889 16.0161C111.508 15.2801 110.419 14.2641 109.62 12.9681C108.839 11.6721 108.448 10.2161 108.448 8.60008C108.448 6.98408 108.839 5.52808 109.62 4.23208C110.419 2.93608 111.508 1.92008 112.889 1.18408C114.286 0.448078 115.858 0.0800781 117.604 0.0800781C118.885 0.0800781 120.057 0.280078 121.122 0.680079C122.203 1.06408 123.126 1.63208 123.891 2.38408L123.093 3.20008C122.361 2.49608 121.538 1.99208 120.623 1.68808C119.725 1.36808 118.727 1.20808 117.629 1.20808C116.132 1.20808 114.777 1.52808 113.562 2.16808C112.365 2.80808 111.425 3.69608 110.743 4.83208C110.061 5.95208 109.72 7.20808 109.72 8.60008C109.72 9.97608 110.061 11.2321 110.743 12.3681C111.442 13.4881 112.39 14.3761 113.587 15.0321C114.785 15.6721 116.132 15.9921 117.629 15.9921C119.625 15.9921 121.28 15.4801 122.594 14.4561V8.67208Z" fill="white"/>
<path d="M137.364 17.2761C135.658 17.2761 134.112 16.9234 132.726 16.2181C131.355 15.4974 130.271 14.5084 129.474 13.2511C128.693 11.9784 128.302 10.5447 128.302 8.95008C128.302 7.35541 128.693 5.92941 129.474 4.67208C130.271 3.39941 131.355 2.41041 132.726 1.70508C134.112 0.984412 135.666 0.624079 137.388 0.624079C138.838 0.624079 140.145 0.869412 141.309 1.36008C142.488 1.85075 143.477 2.55608 144.274 3.47608L141.787 5.68408C140.655 4.42675 139.253 3.79808 137.579 3.79808C136.543 3.79808 135.619 4.02041 134.806 4.46508C133.993 4.89441 133.355 5.50008 132.893 6.28208C132.447 7.06408 132.223 7.95341 132.223 8.95008C132.223 9.94675 132.447 10.8361 132.893 11.6181C133.355 12.4001 133.993 13.0134 134.806 13.4581C135.619 13.8874 136.543 14.1021 137.579 14.1021C139.253 14.1021 140.655 13.4657 141.787 12.1931L144.274 14.4011C143.477 15.3364 142.488 16.0494 141.309 16.5401C140.129 17.0307 138.814 17.2761 137.364 17.2761Z" fill="white"/>
<path d="M163.195 0.900078V17.0001H159.322V10.3991H151.719V17.0001H147.846V0.900078H151.719V7.24808H159.322V0.900078H163.195Z" fill="white"/>
<path d="M179.134 13.5501H171.363L169.881 17.0001H165.912L173.372 0.900078H177.197L184.681 17.0001H180.616L179.134 13.5501ZM177.914 10.7211L175.26 4.55708L172.606 10.7211H177.914Z" fill="white"/>
<path d="M202.723 0.900078V17.0001H199.543L191.199 7.22508V17.0001H187.373V0.900078H190.577L198.898 10.6751V0.900078H202.723Z" fill="white"/>
<path d="M218.948 8.69708H222.487V15.2291C221.578 15.8884 220.526 16.3944 219.331 16.7471C218.135 17.0997 216.932 17.2761 215.721 17.2761C213.983 17.2761 212.421 16.9234 211.034 16.2181C209.648 15.4974 208.556 14.5084 207.759 13.2511C206.978 11.9784 206.587 10.5447 206.587 8.95008C206.587 7.35541 206.978 5.92941 207.759 4.67208C208.556 3.39941 209.656 2.41041 211.058 1.70508C212.461 0.984412 214.039 0.624079 215.792 0.624079C217.259 0.624079 218.59 0.861745 219.785 1.33708C220.981 1.81241 221.985 2.50241 222.798 3.40708L220.311 5.61508C219.116 4.40375 217.673 3.79808 215.984 3.79808C214.916 3.79808 213.967 4.01275 213.138 4.44208C212.31 4.87141 211.664 5.47708 211.202 6.25908C210.739 7.04108 210.508 7.93808 210.508 8.95008C210.508 9.94675 210.739 10.8361 211.202 11.6181C211.664 12.4001 212.302 13.0134 213.114 13.4581C213.943 13.8874 214.884 14.1021 215.936 14.1021C217.052 14.1021 218.056 13.8721 218.948 13.4121V8.69708Z" fill="white"/>
<path d="M240 14.0101V17.0001H227.041V0.900078H239.689V3.89008H230.891V7.38608H238.661V10.2841H230.891V14.0101H240Z" fill="white"/>
</svg>
