<svg width="241" height="18" viewBox="0 0 241 18" fill="none" xmlns="http://www.w3.org/2000/svg">
<path d="M2.20012 1.30408V8.48008H11.506V9.58408H2.20012V17.0001H0.927734V0.200078H12.6037V1.30408H2.20012Z" fill="#17273D"/>
<path d="M24.5008 17.1201C22.2887 17.1201 20.5672 16.5041 19.3364 15.2721C18.1222 14.0401 17.5151 12.2401 17.5151 9.87208V0.200078H18.7875V9.82408C18.7875 11.8881 19.2782 13.4321 20.2595 14.4561C21.2408 15.4801 22.6629 15.9921 24.5257 15.9921C26.3719 15.9921 27.7857 15.4801 28.767 14.4561C29.7483 13.4321 30.239 11.8881 30.239 9.82408V0.200078H31.5114V9.87208C31.5114 12.2401 30.896 14.0401 29.6652 15.2721C28.4344 16.5041 26.7129 17.1201 24.5008 17.1201Z" fill="#17273D"/>
<path d="M52.6671 0.200078V17.0001H51.6193L39.7187 2.40808V17.0001H38.4463V0.200078H39.5191L51.3947 14.7921V0.200078H52.6671Z" fill="#17273D"/>
<path d="M59.7639 0.200078H66.6747C68.4876 0.200078 70.0926 0.560078 71.4898 1.28008C72.9035 2.00008 74.0013 3.00008 74.783 4.28008C75.5647 5.54408 75.9556 6.98408 75.9556 8.60008C75.9556 10.2161 75.5647 11.6641 74.783 12.9441C74.0013 14.2081 72.9035 15.2001 71.4898 15.9201C70.0926 16.6401 68.4876 17.0001 66.6747 17.0001H59.7639V0.200078ZM66.5749 15.8961C68.1882 15.8961 69.6103 15.5921 70.8411 14.9841C72.0719 14.3601 73.02 13.4961 73.6853 12.3921C74.3506 11.2881 74.6832 10.0241 74.6832 8.60008C74.6832 7.17608 74.3506 5.91208 73.6853 4.80808C73.02 3.70408 72.0719 2.84808 70.8411 2.24008C69.6103 1.61608 68.1882 1.30408 66.5749 1.30408H61.0362V15.8961H66.5749Z" fill="#17273D"/>
<path d="M81.3737 0.200078H82.6461V17.0001H81.3737V0.200078Z" fill="#17273D"/>
<path d="M103.95 0.200078V17.0001H102.903L91.002 2.40808V17.0001H89.7296V0.200078H90.8024L102.678 14.7921V0.200078H103.95Z" fill="#17273D"/>
<path d="M123.522 8.67208H124.744V14.9601C123.979 15.6641 123.047 16.2001 121.95 16.5681C120.869 16.9361 119.721 17.1201 118.507 17.1201C116.777 17.1201 115.214 16.7521 113.816 16.0161C112.436 15.2801 111.347 14.2641 110.548 12.9681C109.766 11.6721 109.376 10.2161 109.376 8.60008C109.376 6.98408 109.766 5.52808 110.548 4.23208C111.347 2.93608 112.436 1.92008 113.816 1.18408C115.214 0.448078 116.785 0.0800781 118.532 0.0800781C119.812 0.0800781 120.985 0.280078 122.05 0.680079C123.131 1.06408 124.054 1.63208 124.819 2.38408L124.02 3.20008C123.289 2.49608 122.465 1.99208 121.551 1.68808C120.652 1.36808 119.654 1.20808 118.557 1.20808C117.06 1.20808 115.704 1.52808 114.49 2.16808C113.293 2.80808 112.353 3.69608 111.671 4.83208C110.989 5.95208 110.648 7.20808 110.648 8.60008C110.648 9.97608 110.989 11.2321 111.671 12.3681C112.369 13.4881 113.317 14.3761 114.515 15.0321C115.713 15.6721 117.06 15.9921 118.557 15.9921C120.553 15.9921 122.208 15.4801 123.522 14.4561V8.67208Z" fill="#17273D"/>
<path d="M138.292 17.2761C136.586 17.2761 135.04 16.9234 133.653 16.2181C132.283 15.4974 131.199 14.5084 130.402 13.2511C129.621 11.9784 129.23 10.5447 129.23 8.95008C129.23 7.35541 129.621 5.92941 130.402 4.67208C131.199 3.39941 132.283 2.41041 133.653 1.70508C135.04 0.984412 136.594 0.624079 138.316 0.624079C139.766 0.624079 141.073 0.869412 142.237 1.36008C143.416 1.85075 144.404 2.55608 145.201 3.47608L142.715 5.68408C141.583 4.42675 140.181 3.79808 138.507 3.79808C137.471 3.79808 136.546 4.02041 135.733 4.46508C134.921 4.89441 134.283 5.50008 133.821 6.28208C133.374 7.06408 133.151 7.95341 133.151 8.95008C133.151 9.94675 133.374 10.8361 133.821 11.6181C134.283 12.4001 134.921 13.0134 135.733 13.4581C136.546 13.8874 137.471 14.1021 138.507 14.1021C140.181 14.1021 141.583 13.4657 142.715 12.1931L145.201 14.4011C144.404 15.3364 143.416 16.0494 142.237 16.5401C141.057 17.0307 139.742 17.2761 138.292 17.2761Z" fill="#17273D"/>
<path d="M164.123 0.900078V17.0001H160.25V10.3991H152.647V17.0001H148.773V0.900078H152.647V7.24808H160.25V0.900078H164.123Z" fill="#17273D"/>
<path d="M180.061 13.5501H172.291L170.809 17.0001H166.84L174.299 0.900078H178.125L185.608 17.0001H181.544L180.061 13.5501ZM178.842 10.7211L176.188 4.55708L173.534 10.7211H178.842Z" fill="#17273D"/>
<path d="M203.651 0.900078V17.0001H200.471L192.127 7.22508V17.0001H188.301V0.900078H191.505L199.825 10.6751V0.900078H203.651Z" fill="#17273D"/>
<path d="M219.876 8.69708H223.415V15.2291C222.506 15.8884 221.454 16.3944 220.259 16.7471C219.063 17.0997 217.86 17.2761 216.648 17.2761C214.911 17.2761 213.349 16.9234 211.962 16.2181C210.575 15.4974 209.484 14.5084 208.687 13.2511C207.906 11.9784 207.515 10.5447 207.515 8.95008C207.515 7.35541 207.906 5.92941 208.687 4.67208C209.484 3.39941 210.583 2.41041 211.986 1.70508C213.389 0.984412 214.967 0.624079 216.72 0.624079C218.186 0.624079 219.517 0.861745 220.713 1.33708C221.908 1.81241 222.913 2.50241 223.725 3.40708L221.239 5.61508C220.043 4.40375 218.601 3.79808 216.911 3.79808C215.843 3.79808 214.895 4.01275 214.066 4.44208C213.237 4.87141 212.592 5.47708 212.129 6.25908C211.667 7.04108 211.436 7.93808 211.436 8.95008C211.436 9.94675 211.667 10.8361 212.129 11.6181C212.592 12.4001 213.229 13.0134 214.042 13.4581C214.871 13.8874 215.811 14.1021 216.863 14.1021C217.979 14.1021 218.983 13.8721 219.876 13.4121V8.69708Z" fill="#17273D"/>
<path d="M240.928 14.0101V17.0001H227.969V0.900078H240.617V3.89008H231.818V7.38608H239.589V10.2841H231.818V14.0101H240.928Z" fill="#17273D"/>
</svg>
