<svg width="106" height="22" viewBox="0 0 106 22" fill="none" xmlns="http://www.w3.org/2000/svg">
<mask id="mask0_129_1445" style="mask-type:alpha" maskUnits="userSpaceOnUse" x="0" y="0" width="23" height="22">
<path d="M0 0H22.0028V22H0V0Z" fill="white"/>
</mask>
<g mask="url(#mask0_129_1445)">
<path fill-rule="evenodd" clip-rule="evenodd" d="M11.0014 0C8.01351 0 7.63934 0.011005 6.46546 0.0660303C5.29434 0.119221 4.49464 0.304473 3.79491 0.576848C3.07132 0.858393 2.45779 1.2344 1.8461 1.8461C1.23532 2.45779 0.858393 3.07132 0.577765 3.79491C0.30539 4.49464 0.119221 5.29343 0.0660303 6.46546C0.0128392 7.63934 0 8.01351 0 11.0014C0 13.9892 0.0128392 14.3634 0.0660303 15.5373C0.119221 16.7084 0.30539 17.5081 0.577765 18.2078C0.858393 18.9314 1.23532 19.545 1.8461 20.1567C2.45779 20.7674 3.07132 21.1444 3.79491 21.425C4.49464 21.6974 5.29434 21.8835 6.46546 21.9367C7.63934 21.9899 8.01351 22.0028 11.0014 22.0028C13.9892 22.0028 14.3643 21.9899 15.5373 21.9367C16.7084 21.8835 17.509 21.6974 18.2078 21.425C18.9314 21.1444 19.545 20.7674 20.1567 20.1567C20.7684 19.545 21.1444 18.9314 21.4259 18.2078C21.6974 17.5081 21.8835 16.7084 21.9367 15.5373C21.9908 14.3634 22.0028 13.9892 22.0028 11.0014C22.0028 8.01351 21.9908 7.63842 21.9367 6.46546C21.8835 5.29434 21.6983 4.49373 21.4259 3.79491C21.1444 3.07132 20.7684 2.45779 20.1567 1.8461C19.545 1.2344 18.9314 0.858393 18.2078 0.576848C17.5081 0.30539 16.7093 0.119221 15.5373 0.0660303C14.3634 0.011005 13.9892 0 11.0014 0ZM11.0014 1.98183C13.9388 1.98183 14.2873 1.99283 15.4474 2.04602C16.5204 2.09463 17.1028 2.27438 17.4898 2.42478C18.0033 2.6247 18.3702 2.86315 18.7553 3.24741C19.1405 3.63258 19.379 3.99942 19.578 4.51299C19.7284 4.9 19.9081 5.48326 19.9567 6.55534C20.0099 7.71545 20.0209 8.06395 20.0209 11.0014C20.0209 13.9388 20.0099 14.2864 19.9567 15.4465C19.9081 16.5195 19.7284 17.1018 19.578 17.4898C19.378 18.0033 19.1396 18.3702 18.7553 18.7553C18.3702 19.1396 18.0033 19.3781 17.4898 19.578C17.1028 19.7284 16.5195 19.9081 15.4474 19.9567C14.2873 20.009 13.9397 20.0209 11.0014 20.0209C8.06395 20.0209 7.71637 20.009 6.55626 19.9567C5.48326 19.9072 4.90091 19.7275 4.51299 19.578C3.99942 19.3781 3.63258 19.1396 3.24741 18.7544C2.86315 18.3693 2.6247 18.0024 2.42478 17.4888C2.27438 17.1018 2.09463 16.5195 2.04602 15.4465C1.99375 14.2864 1.98183 13.9388 1.98183 11.0014C1.98183 8.06395 1.99375 7.71545 2.04602 6.55534C2.09554 5.48235 2.27529 4.9 2.42478 4.51299C2.6247 3.99942 2.86315 3.63258 3.24832 3.24741C3.6335 2.86223 4.00033 2.62379 4.5139 2.42478C4.90091 2.27438 5.48326 2.09463 6.55626 2.04602C7.71637 1.99283 8.06395 1.98183 11.0014 1.98183V1.98183Z" fill="white"/>
</g>
<path fill-rule="evenodd" clip-rule="evenodd" d="M11.0018 14.6689C8.97687 14.6689 7.33436 13.0273 7.33436 11.0006C7.33436 8.97565 8.97595 7.33406 11.0027 7.33406C13.0276 7.33406 14.6692 8.97565 14.6692 11.0015C14.6692 13.0264 13.0276 14.6689 11.0018 14.6689ZM11.0018 5.35132C7.88187 5.35132 5.35254 7.88156 5.35254 11.0006C5.35254 14.1214 7.88187 16.6507 11.0018 16.6507C14.1217 16.6507 16.6511 14.1214 16.6511 11.0015C16.6511 7.88156 14.1217 5.35224 11.0018 5.35224V5.35132ZM18.1954 5.12847C18.1954 5.85755 17.6039 6.44907 16.8748 6.44907C16.1457 6.44907 15.5542 5.85755 15.5542 5.12847C15.5542 4.39938 16.1457 3.80786 16.8748 3.80786C17.6039 3.80786 18.1954 4.39938 18.1954 5.12847Z" fill="white"/>
<path fill-rule="evenodd" clip-rule="evenodd" d="M64.1305 11.0699C64.1305 4.95722 59.1732 0 53.0699 0C46.9665 0 42 4.95722 42 11.0699C42 16.5955 46.044 21.1707 51.3367 22V14.266H48.532V11.0699H51.346V8.62855C51.346 5.85176 52.9953 4.32359 55.5205 4.32359C56.7319 4.32359 57.9992 4.53791 57.9992 4.53791V7.25879H56.6014C55.2224 7.25879 54.7937 8.10673 54.7937 8.98263V11.0606H57.8594L57.3655 14.2567H54.7844V21.9907C60.0771 21.1614 64.1211 16.5769 64.1211 11.0606" fill="white"/>
<path d="M101.417 0H88.5833C86.0524 0 84 2.05242 84 4.58333V17.4167C84 19.9476 86.0524 22 88.5833 22H101.417C103.949 22 106 19.9476 106 17.4167V4.58333C106 2.05242 103.949 0 101.417 0ZM91.3333 17.4167H88.5833V7.33333H91.3333V17.4167ZM89.9583 6.171C89.0728 6.171 88.3542 5.44683 88.3542 4.554C88.3542 3.66117 89.0728 2.937 89.9583 2.937C90.8438 2.937 91.5625 3.66117 91.5625 4.554C91.5625 5.44683 90.8448 6.171 89.9583 6.171ZM102.333 17.4167H99.5833V12.2797C99.5833 9.19233 95.9167 9.42608 95.9167 12.2797V17.4167H93.1667V7.33333H95.9167V8.95125C97.1963 6.58075 102.333 6.40567 102.333 11.2209V17.4167Z" fill="white"/>
</svg>
